<svg width="280" height="66" viewBox="0 0 280 66" fill="none" xmlns="http://www.w3.org/2000/svg">
<g clip-path="url(#clip0_4_96)">
<mask id="path-1-outside-1_4_96" maskUnits="userSpaceOnUse" x="15" y="17" width="93" height="32" fill="black">
<rect fill="white" x="15" y="17" width="93" height="32"/>
<path d="M35.1756 32.552C37.3516 32.808 38.9036 33.544 39.8316 34.76C40.7596 35.944 41.2236 37.384 41.2236 39.08C41.2236 40.136 41.0636 41.144 40.7436 42.104C40.4236 43.032 40.0396 43.832 39.5916 44.504C39.1436 45.144 38.7596 45.56 38.4396 45.752C37.1596 46.584 33.2556 47 26.7276 47H17.4156V19.64H28.6956C31.2556 19.64 33.3196 19.784 34.8876 20.072C36.4876 20.328 37.7836 20.936 38.7756 21.896C39.7676 22.824 40.2636 24.248 40.2636 26.168C40.2636 27.832 39.8476 29.176 39.0156 30.2C38.2156 31.224 36.9356 31.928 35.1756 32.312V32.552ZM31.3356 25.448C31.0156 25.128 30.6316 24.936 30.1836 24.872C29.7676 24.776 29.0956 24.728 28.1676 24.728C27.2396 24.728 26.5356 24.744 26.0556 24.776V30.632H26.5356C26.6956 30.632 27.3676 30.632 28.5516 30.632C29.7356 30.632 30.5196 30.552 30.9036 30.392C31.1916 30.264 31.4476 29.928 31.6716 29.384C31.9276 28.84 32.0556 28.248 32.0556 27.608C32.0556 26.648 31.8156 25.928 31.3356 25.448ZM32.1516 41.48C32.3756 41.288 32.5516 40.936 32.6796 40.424C32.8396 39.88 32.9196 39.336 32.9196 38.792C32.9196 38.12 32.8236 37.496 32.6316 36.92C32.4716 36.312 32.2476 35.88 31.9596 35.624C31.6716 35.336 31.2556 35.144 30.7116 35.048C30.1996 34.952 29.3196 34.904 28.0716 34.904C27.2716 34.904 26.5996 34.92 26.0556 34.952V41.912C27.5596 41.944 28.9036 41.928 30.0876 41.864C31.2716 41.768 31.9596 41.64 32.1516 41.48ZM44.8855 19.64H53.5255V47H44.8855V19.64ZM83.9204 47H74.4644L69.1364 36.776C69.0404 36.616 68.7844 36.168 68.3684 35.432C67.9844 34.696 67.5524 33.992 67.0724 33.32V47H58.4324V19.64H67.0724V32.072C67.6164 31.464 68.0804 30.808 68.4644 30.104C68.8804 29.368 69.1204 28.936 69.1844 28.808L74.3204 19.64H83.4404L77.9684 28.808C77.8724 28.936 77.6644 29.272 77.3444 29.816C77.0244 30.36 76.6724 30.872 76.2884 31.352C75.9364 31.8 75.5524 32.216 75.1364 32.6C75.7124 33.144 76.1764 33.688 76.5284 34.232C76.9124 34.744 77.3444 35.432 77.8244 36.296L83.9204 47ZM85.8006 19.64H105.721V25.4H94.4406V30.392H103.945V35.576H94.4406V41.144H105.673V47H85.8006V19.64Z"/>
</mask>
<path d="M35.1756 32.552C37.3516 32.808 38.9036 33.544 39.8316 34.76C40.7596 35.944 41.2236 37.384 41.2236 39.08C41.2236 40.136 41.0636 41.144 40.7436 42.104C40.4236 43.032 40.0396 43.832 39.5916 44.504C39.1436 45.144 38.7596 45.56 38.4396 45.752C37.1596 46.584 33.2556 47 26.7276 47H17.4156V19.64H28.6956C31.2556 19.64 33.3196 19.784 34.8876 20.072C36.4876 20.328 37.7836 20.936 38.7756 21.896C39.7676 22.824 40.2636 24.248 40.2636 26.168C40.2636 27.832 39.8476 29.176 39.0156 30.2C38.2156 31.224 36.9356 31.928 35.1756 32.312V32.552ZM31.3356 25.448C31.0156 25.128 30.6316 24.936 30.1836 24.872C29.7676 24.776 29.0956 24.728 28.1676 24.728C27.2396 24.728 26.5356 24.744 26.0556 24.776V30.632H26.5356C26.6956 30.632 27.3676 30.632 28.5516 30.632C29.7356 30.632 30.5196 30.552 30.9036 30.392C31.1916 30.264 31.4476 29.928 31.6716 29.384C31.9276 28.84 32.0556 28.248 32.0556 27.608C32.0556 26.648 31.8156 25.928 31.3356 25.448ZM32.1516 41.48C32.3756 41.288 32.5516 40.936 32.6796 40.424C32.8396 39.88 32.9196 39.336 32.9196 38.792C32.9196 38.12 32.8236 37.496 32.6316 36.92C32.4716 36.312 32.2476 35.88 31.9596 35.624C31.6716 35.336 31.2556 35.144 30.7116 35.048C30.1996 34.952 29.3196 34.904 28.0716 34.904C27.2716 34.904 26.5996 34.92 26.0556 34.952V41.912C27.5596 41.944 28.9036 41.928 30.0876 41.864C31.2716 41.768 31.9596 41.64 32.1516 41.48ZM44.8855 19.64H53.5255V47H44.8855V19.64ZM83.9204 47H74.4644L69.1364 36.776C69.0404 36.616 68.7844 36.168 68.3684 35.432C67.9844 34.696 67.5524 33.992 67.0724 33.32V47H58.4324V19.64H67.0724V32.072C67.6164 31.464 68.0804 30.808 68.4644 30.104C68.8804 29.368 69.1204 28.936 69.1844 28.808L74.3204 19.64H83.4404L77.9684 28.808C77.8724 28.936 77.6644 29.272 77.3444 29.816C77.0244 30.36 76.6724 30.872 76.2884 31.352C75.9364 31.8 75.5524 32.216 75.1364 32.6C75.7124 33.144 76.1764 33.688 76.5284 34.232C76.9124 34.744 77.3444 35.432 77.8244 36.296L83.9204 47ZM85.8006 19.64H105.721V25.4H94.4406V30.392H103.945V35.576H94.4406V41.144H105.673V47H85.8006V19.64Z" fill="#FF6663"/>
<path d="M35.1756 32.552C37.3516 32.808 38.9036 33.544 39.8316 34.76C40.7596 35.944 41.2236 37.384 41.2236 39.08C41.2236 40.136 41.0636 41.144 40.7436 42.104C40.4236 43.032 40.0396 43.832 39.5916 44.504C39.1436 45.144 38.7596 45.56 38.4396 45.752C37.1596 46.584 33.2556 47 26.7276 47H17.4156V19.64H28.6956C31.2556 19.64 33.3196 19.784 34.8876 20.072C36.4876 20.328 37.7836 20.936 38.7756 21.896C39.7676 22.824 40.2636 24.248 40.2636 26.168C40.2636 27.832 39.8476 29.176 39.0156 30.2C38.2156 31.224 36.9356 31.928 35.1756 32.312V32.552ZM31.3356 25.448C31.0156 25.128 30.6316 24.936 30.1836 24.872C29.7676 24.776 29.0956 24.728 28.1676 24.728C27.2396 24.728 26.5356 24.744 26.0556 24.776V30.632H26.5356C26.6956 30.632 27.3676 30.632 28.5516 30.632C29.7356 30.632 30.5196 30.552 30.9036 30.392C31.1916 30.264 31.4476 29.928 31.6716 29.384C31.9276 28.84 32.0556 28.248 32.0556 27.608C32.0556 26.648 31.8156 25.928 31.3356 25.448ZM32.1516 41.48C32.3756 41.288 32.5516 40.936 32.6796 40.424C32.8396 39.88 32.9196 39.336 32.9196 38.792C32.9196 38.12 32.8236 37.496 32.6316 36.92C32.4716 36.312 32.2476 35.88 31.9596 35.624C31.6716 35.336 31.2556 35.144 30.7116 35.048C30.1996 34.952 29.3196 34.904 28.0716 34.904C27.2716 34.904 26.5996 34.92 26.0556 34.952V41.912C27.5596 41.944 28.9036 41.928 30.0876 41.864C31.2716 41.768 31.9596 41.64 32.1516 41.48ZM44.8855 19.64H53.5255V47H44.8855V19.64ZM83.9204 47H74.4644L69.1364 36.776C69.0404 36.616 68.7844 36.168 68.3684 35.432C67.9844 34.696 67.5524 33.992 67.0724 33.32V47H58.4324V19.64H67.0724V32.072C67.6164 31.464 68.0804 30.808 68.4644 30.104C68.8804 29.368 69.1204 28.936 69.1844 28.808L74.3204 19.64H83.4404L77.9684 28.808C77.8724 28.936 77.6644 29.272 77.3444 29.816C77.0244 30.36 76.6724 30.872 76.2884 31.352C75.9364 31.8 75.5524 32.216 75.1364 32.6C75.7124 33.144 76.1764 33.688 76.5284 34.232C76.9124 34.744 77.3444 35.432 77.8244 36.296L83.9204 47ZM85.8006 19.64H105.721V25.4H94.4406V30.392H103.945V35.576H94.4406V41.144H105.673V47H85.8006V19.64Z" fill="black" fill-opacity="0.2"/>
<path d="M35.1756 32.552H33.1756V34.3305L34.9419 34.5383L35.1756 32.552ZM39.8316 34.76L38.2417 35.9733L38.2496 35.9836L38.2575 35.9938L39.8316 34.76ZM40.7436 42.104L42.6344 42.756L42.6377 42.7462L42.641 42.7365L40.7436 42.104ZM39.5916 44.504L41.2301 45.6509L41.2431 45.6323L41.2557 45.6134L39.5916 44.504ZM38.4396 45.752L37.4106 44.037L37.3798 44.0555L37.3497 44.0751L38.4396 45.752ZM17.4156 47H15.4156V49H17.4156V47ZM17.4156 19.64V17.64H15.4156V19.64H17.4156ZM34.8876 20.072L34.5263 22.0391L34.5489 22.0432L34.5716 22.0469L34.8876 20.072ZM38.7756 21.896L37.3848 23.3332L37.3969 23.345L37.4093 23.3565L38.7756 21.896ZM39.0156 30.2L37.4634 28.9388L37.4513 28.9536L37.4396 28.9687L39.0156 30.2ZM35.1756 32.312L34.7493 30.358L33.1756 30.7013V32.312H35.1756ZM30.1836 24.872L29.7339 26.8208L29.8167 26.8399L29.9008 26.8519L30.1836 24.872ZM26.0556 24.776L25.9226 22.7804L24.0556 22.9049V24.776H26.0556ZM26.0556 30.632H24.0556V32.632H26.0556V30.632ZM30.9036 30.392L31.6729 32.2382L31.6945 32.2291L31.7159 32.2196L30.9036 30.392ZM31.6716 29.384L29.862 28.5324L29.841 28.577L29.8223 28.6225L31.6716 29.384ZM32.1516 41.48L33.432 43.0164L33.4427 43.0076L33.4532 42.9985L32.1516 41.48ZM32.6796 40.424L30.7609 39.8597L30.7493 39.8991L30.7393 39.9389L32.6796 40.424ZM32.6316 36.92L30.6975 37.429L30.7139 37.4913L30.7343 37.5525L32.6316 36.92ZM31.9596 35.624L30.5454 37.0382L30.587 37.0798L30.6309 37.1188L31.9596 35.624ZM30.7116 35.048L30.3431 37.0137L30.3535 37.0157L30.3641 37.0176L30.7116 35.048ZM26.0556 34.952L25.9382 32.9555L24.0556 33.0662V34.952H26.0556ZM26.0556 41.912H24.0556V43.8699L26.0131 43.9115L26.0556 41.912ZM30.0876 41.864L30.1956 43.8611L30.2224 43.8596L30.2493 43.8575L30.0876 41.864ZM34.9419 34.5383C36.8151 34.7587 37.7627 35.3457 38.2417 35.9733L41.4215 33.5467C40.0445 31.7423 37.8881 30.8573 35.4093 30.5657L34.9419 34.5383ZM38.2575 35.9938C38.8747 36.7812 39.2236 37.7713 39.2236 39.08H43.2236C43.2236 36.9967 42.6446 35.1068 41.4057 33.5262L38.2575 35.9938ZM39.2236 39.08C39.2236 39.9305 39.0954 40.7242 38.8463 41.4715L42.641 42.7365C43.0319 41.5638 43.2236 40.3415 43.2236 39.08H39.2236ZM38.8529 41.452C38.5771 42.2518 38.263 42.8914 37.9275 43.3946L41.2557 45.6134C41.8163 44.7726 42.2702 43.8122 42.6344 42.756L38.8529 41.452ZM37.9532 43.3571C37.7629 43.6289 37.6111 43.8169 37.498 43.9394C37.3757 44.0719 37.3464 44.0756 37.4106 44.037L39.4686 47.467C40.1739 47.0438 40.7591 46.3237 41.2301 45.6509L37.9532 43.3571ZM37.3497 44.0751C37.35 44.0749 37.3339 44.0853 37.296 44.1037C37.2584 44.1219 37.205 44.1453 37.1327 44.1725C36.986 44.2276 36.785 44.2896 36.5195 44.3536C35.9851 44.4822 35.2657 44.6006 34.3397 44.6993C32.4888 44.8965 29.9605 45 26.7276 45V49C30.0227 49 32.7104 48.8955 34.7635 48.6767C35.7896 48.5674 36.6941 48.4258 37.4557 48.2424C38.1854 48.0668 38.9276 47.8202 39.5296 47.4289L37.3497 44.0751ZM26.7276 45H17.4156V49H26.7276V45ZM19.4156 47V19.64H15.4156V47H19.4156ZM17.4156 21.64H28.6956V17.64H17.4156V21.64ZM28.6956 21.64C31.1977 21.64 33.1268 21.782 34.5263 22.0391L35.2489 18.1049C33.5125 17.786 31.3135 17.64 28.6956 17.64V21.64ZM34.5716 22.0469C35.839 22.2497 36.736 22.7054 37.3848 23.3332L40.1665 20.4588C38.8312 19.1666 37.1363 18.4063 35.2036 18.0971L34.5716 22.0469ZM37.4093 23.3565C37.8532 23.7718 38.2636 24.5677 38.2636 26.168H42.2636C42.2636 23.9283 41.6821 21.8762 40.1419 20.4355L37.4093 23.3565ZM38.2636 26.168C38.2636 27.4953 37.9368 28.3561 37.4634 28.9388L40.5679 31.4612C41.7584 29.9959 42.2636 28.1687 42.2636 26.168H38.2636ZM37.4396 28.9687C37.0204 29.5053 36.2281 30.0353 34.7493 30.358L35.602 34.266C37.6431 33.8207 39.4109 32.9427 40.5917 31.4313L37.4396 28.9687ZM33.1756 32.312V32.552H37.1756V32.312H33.1756ZM32.7498 24.0338C32.1238 23.4078 31.3429 23.0173 30.4665 22.8921L29.9008 26.8519C29.9135 26.8537 29.9192 26.8555 29.9195 26.8556C29.9196 26.8556 29.9171 26.8548 29.9132 26.8529C29.9093 26.8509 29.9071 26.8494 29.9073 26.8495C29.9075 26.8497 29.9124 26.8532 29.9214 26.8622L32.7498 24.0338ZM30.6333 22.9232C29.9802 22.7725 29.1132 22.728 28.1676 22.728V26.728C29.0781 26.728 29.5551 26.7795 29.7339 26.8208L30.6333 22.9232ZM28.1676 22.728C27.2279 22.728 26.4705 22.7439 25.9226 22.7804L26.1887 26.7716C26.6007 26.7441 27.2514 26.728 28.1676 26.728V22.728ZM24.0556 24.776V30.632H28.0556V24.776H24.0556ZM26.0556 32.632H26.5356V28.632H26.0556V32.632ZM26.5356 32.632C26.5359 32.632 26.5363 32.632 26.5366 32.632C26.5369 32.632 26.5372 32.632 26.5375 32.632C26.5378 32.632 26.5382 32.632 26.5385 32.632C26.5388 32.632 26.5391 32.632 26.5395 32.632C26.5398 32.632 26.5401 32.632 26.5405 32.632C26.5408 32.632 26.5411 32.632 26.5415 32.632C26.5418 32.632 26.5421 32.632 26.5425 32.632C26.5428 32.632 26.5432 32.632 26.5435 32.632C26.5438 32.632 26.5442 32.632 26.5445 32.632C26.5449 32.632 26.5452 32.632 26.5456 32.632C26.5459 32.632 26.5463 32.632 26.5466 32.632C26.547 32.632 26.5474 32.632 26.5477 32.632C26.5481 32.632 26.5484 32.632 26.5488 32.632C26.5492 32.632 26.5495 32.632 26.5499 32.632C26.5503 32.632 26.5506 32.632 26.551 32.632C26.5514 32.632 26.5518 32.632 26.5521 32.632C26.5525 32.632 26.5529 32.632 26.5533 32.632C26.5536 32.632 26.554 32.632 26.5544 32.632C26.5548 32.632 26.5552 32.632 26.5556 32.632C26.5559 32.632 26.5563 32.632 26.5567 32.632C26.5571 32.632 26.5575 32.632 26.5579 32.632C26.5583 32.632 26.5587 32.632 26.5591 32.632C26.5595 32.632 26.5599 32.632 26.5603 32.632C26.5607 32.632 26.5611 32.632 26.5615 32.632C26.5619 32.632 26.5623 32.632 26.5627 32.632C26.5631 32.632 26.5635 32.632 26.564 32.632C26.5644 32.632 26.5648 32.632 26.5652 32.632C26.5656 32.632 26.566 32.632 26.5665 32.632C26.5669 32.632 26.5673 32.632 26.5677 32.632C26.5682 32.632 26.5686 32.632 26.569 32.632C26.5695 32.632 26.5699 32.632 26.5703 32.632C26.5708 32.632 26.5712 32.632 26.5716 32.632C26.5721 32.632 26.5725 32.632 26.5729 32.632C26.5734 32.632 26.5738 32.632 26.5743 32.632C26.5747 32.632 26.5752 32.632 26.5756 32.632C26.5761 32.632 26.5765 32.632 26.577 32.632C26.5774 32.632 26.5779 32.632 26.5783 32.632C26.5788 32.632 26.5793 32.632 26.5797 32.632C26.5802 32.632 26.5806 32.632 26.5811 32.632C26.5816 32.632 26.582 32.632 26.5825 32.632C26.583 32.632 26.5834 32.632 26.5839 32.632C26.5844 32.632 26.5849 32.632 26.5853 32.632C26.5858 32.632 26.5863 32.632 26.5868 32.632C26.5873 32.632 26.5877 32.632 26.5882 32.632C26.5887 32.632 26.5892 32.632 26.5897 32.632C26.5902 32.632 26.5907 32.632 26.5911 32.632C26.5916 32.632 26.5921 32.632 26.5926 32.632C26.5931 32.632 26.5936 32.632 26.5941 32.632C26.5946 32.632 26.5951 32.632 26.5956 32.632C26.5961 32.632 26.5966 32.632 26.5971 32.632C26.5977 32.632 26.5982 32.632 26.5987 32.632C26.5992 32.632 26.5997 32.632 26.6002 32.632C26.6007 32.632 26.6013 32.632 26.6018 32.632C26.6023 32.632 26.6028 32.632 26.6033 32.632C26.6039 32.632 26.6044 32.632 26.6049 32.632C26.6054 32.632 26.606 32.632 26.6065 32.632C26.607 32.632 26.6076 32.632 26.6081 32.632C26.6086 32.632 26.6092 32.632 26.6097 32.632C26.6103 32.632 26.6108 32.632 26.6113 32.632C26.6119 32.632 26.6124 32.632 26.613 32.632C26.6135 32.632 26.6141 32.632 26.6146 32.632C26.6152 32.632 26.6157 32.632 26.6163 32.632C26.6168 32.632 26.6174 32.632 26.6179 32.632C26.6185 32.632 26.6191 32.632 26.6196 32.632C26.6202 32.632 26.6208 32.632 26.6213 32.632C26.6219 32.632 26.6225 32.632 26.623 32.632C26.6236 32.632 26.6242 32.632 26.6247 32.632C26.6253 32.632 26.6259 32.632 26.6265 32.632C26.627 32.632 26.6276 32.632 26.6282 32.632C26.6288 32.632 26.6294 32.632 26.63 32.632C26.6305 32.632 26.6311 32.632 26.6317 32.632C26.6323 32.632 26.6329 32.632 26.6335 32.632C26.6341 32.632 26.6347 32.632 26.6353 32.632C26.6359 32.632 26.6365 32.632 26.6371 32.632C26.6377 32.632 26.6383 32.632 26.6389 32.632C26.6395 32.632 26.6401 32.632 26.6407 32.632C26.6413 32.632 26.6419 32.632 26.6426 32.632C26.6432 32.632 26.6438 32.632 26.6444 32.632C26.645 32.632 26.6456 32.632 26.6463 32.632C26.6469 32.632 26.6475 32.632 26.6481 32.632C26.6488 32.632 26.6494 32.632 26.65 32.632C26.6506 32.632 26.6513 32.632 26.6519 32.632C26.6525 32.632 26.6532 32.632 26.6538 32.632C26.6544 32.632 26.6551 32.632 26.6557 32.632C26.6564 32.632 26.657 32.632 26.6576 32.632C26.6583 32.632 26.6589 32.632 26.6596 32.632C26.6602 32.632 26.6609 32.632 26.6615 32.632C26.6622 32.632 26.6628 32.632 26.6635 32.632C26.6642 32.632 26.6648 32.632 26.6655 32.632C26.6661 32.632 26.6668 32.632 26.6675 32.632C26.6681 32.632 26.6688 32.632 26.6695 32.632C26.6701 32.632 26.6708 32.632 26.6715 32.632C26.6721 32.632 26.6728 32.632 26.6735 32.632C26.6742 32.632 26.6748 32.632 26.6755 32.632C26.6762 32.632 26.6769 32.632 26.6776 32.632C26.6783 32.632 26.6789 32.632 26.6796 32.632C26.6803 32.632 26.681 32.632 26.6817 32.632C26.6824 32.632 26.6831 32.632 26.6838 32.632C26.6845 32.632 26.6852 32.632 26.6859 32.632C26.6866 32.632 26.6873 32.632 26.688 32.632C26.6887 32.632 26.6894 32.632 26.6901 32.632C26.6908 32.632 26.6915 32.632 26.6922 32.632C26.6929 32.632 26.6936 32.632 26.6943 32.632C26.6951 32.632 26.6958 32.632 26.6965 32.632C26.6972 32.632 26.6979 32.632 26.6987 32.632C26.6994 32.632 26.7001 32.632 26.7008 32.632C26.7016 32.632 26.7023 32.632 26.703 32.632C26.7038 32.632 26.7045 32.632 26.7052 32.632C26.706 32.632 26.7067 32.632 26.7074 32.632C26.7082 32.632 26.7089 32.632 26.7096 32.632C26.7104 32.632 26.7111 32.632 26.7119 32.632C26.7126 32.632 26.7134 32.632 26.7141 32.632C26.7149 32.632 26.7156 32.632 26.7164 32.632C26.7171 32.632 26.7179 32.632 26.7186 32.632C26.7194 32.632 26.7202 32.632 26.7209 32.632C26.7217 32.632 26.7225 32.632 26.7232 32.632C26.724 32.632 26.7248 32.632 26.7255 32.632C26.7263 32.632 26.7271 32.632 26.7278 32.632C26.7286 32.632 26.7294 32.632 26.7302 32.632C26.7309 32.632 26.7317 32.632 26.7325 32.632C26.7333 32.632 26.7341 32.632 26.7348 32.632C26.7356 32.632 26.7364 32.632 26.7372 32.632C26.738 32.632 26.7388 32.632 26.7396 32.632C26.7404 32.632 26.7412 32.632 26.742 32.632C26.7428 32.632 26.7436 32.632 26.7444 32.632C26.7452 32.632 26.746 32.632 26.7468 32.632C26.7476 32.632 26.7484 32.632 26.7492 32.632C26.75 32.632 26.7508 32.632 26.7516 32.632C26.7524 32.632 26.7533 32.632 26.7541 32.632C26.7549 32.632 26.7557 32.632 26.7565 32.632C26.7573 32.632 26.7582 32.632 26.759 32.632C26.7598 32.632 26.7606 32.632 26.7615 32.632C26.7623 32.632 26.7631 32.632 26.764 32.632C26.7648 32.632 26.7656 32.632 26.7665 32.632C26.7673 32.632 26.7681 32.632 26.769 32.632C26.7698 32.632 26.7707 32.632 26.7715 32.632C26.7723 32.632 26.7732 32.632 26.774 32.632C26.7749 32.632 26.7757 32.632 26.7766 32.632C26.7774 32.632 26.7783 32.632 26.7791 32.632C26.78 32.632 26.7809 32.632 26.7817 32.632C26.7826 32.632 26.7834 32.632 26.7843 32.632C26.7852 32.632 26.786 32.632 26.7869 32.632C26.7878 32.632 26.7886 32.632 26.7895 32.632C26.7904 32.632 26.7913 32.632 26.7921 32.632C26.793 32.632 26.7939 32.632 26.7948 32.632C26.7956 32.632 26.7965 32.632 26.7974 32.632C26.7983 32.632 26.7992 32.632 26.8001 32.632C26.8009 32.632 26.8018 32.632 26.8027 32.632C26.8036 32.632 26.8045 32.632 26.8054 32.632C26.8063 32.632 26.8072 32.632 26.8081 32.632C26.809 32.632 26.8099 32.632 26.8108 32.632C26.8117 32.632 26.8126 32.632 26.8135 32.632C26.8144 32.632 26.8153 32.632 26.8162 32.632C26.8171 32.632 26.818 32.632 26.819 32.632C26.8199 32.632 26.8208 32.632 26.8217 32.632C26.8226 32.632 26.8235 32.632 26.8245 32.632C26.8254 32.632 26.8263 32.632 26.8272 32.632C26.8282 32.632 26.8291 32.632 26.83 32.632C26.831 32.632 26.8319 32.632 26.8328 32.632C26.8338 32.632 26.8347 32.632 26.8356 32.632C26.8366 32.632 26.8375 32.632 26.8384 32.632C26.8394 32.632 26.8403 32.632 26.8413 32.632C26.8422 32.632 26.8432 32.632 26.8441 32.632C26.8451 32.632 26.846 32.632 26.847 32.632C26.8479 32.632 26.8489 32.632 26.8498 32.632C26.8508 32.632 26.8517 32.632 26.8527 32.632C26.8537 32.632 26.8546 32.632 26.8556 32.632C26.8566 32.632 26.8575 32.632 26.8585 32.632C26.8595 32.632 26.8604 32.632 26.8614 32.632C26.8624 32.632 26.8634 32.632 26.8643 32.632C26.8653 32.632 26.8663 32.632 26.8673 32.632C26.8683 32.632 26.8692 32.632 26.8702 32.632C26.8712 32.632 26.8722 32.632 26.8732 32.632C26.8742 32.632 26.8752 32.632 26.8761 32.632C26.8771 32.632 26.8781 32.632 26.8791 32.632C26.8801 32.632 26.8811 32.632 26.8821 32.632C26.8831 32.632 26.8841 32.632 26.8851 32.632C26.8861 32.632 26.8871 32.632 26.8881 32.632C26.8892 32.632 26.8902 32.632 26.8912 32.632C26.8922 32.632 26.8932 32.632 26.8942 32.632C26.8952 32.632 26.8963 32.632 26.8973 32.632C26.8983 32.632 26.8993 32.632 26.9003 32.632C26.9014 32.632 26.9024 32.632 26.9034 32.632C26.9044 32.632 26.9055 32.632 26.9065 32.632C26.9075 32.632 26.9086 32.632 26.9096 32.632C26.9106 32.632 26.9117 32.632 26.9127 32.632C26.9137 32.632 26.9148 32.632 26.9158 32.632C26.9169 32.632 26.9179 32.632 26.919 32.632C26.92 32.632 26.9211 32.632 26.9221 32.632C26.9232 32.632 26.9242 32.632 26.9253 32.632C26.9263 32.632 26.9274 32.632 26.9284 32.632C26.9295 32.632 26.9306 32.632 26.9316 32.632C26.9327 32.632 26.9338 32.632 26.9348 32.632C26.9359 32.632 26.937 32.632 26.938 32.632C26.9391 32.632 26.9402 32.632 26.9412 32.632C26.9423 32.632 26.9434 32.632 26.9445 32.632C26.9455 32.632 26.9466 32.632 26.9477 32.632C26.9488 32.632 26.9499 32.632 26.951 32.632C26.952 32.632 26.9531 32.632 26.9542 32.632C26.9553 32.632 26.9564 32.632 26.9575 32.632C26.9586 32.632 26.9597 32.632 26.9608 32.632C26.9619 32.632 26.963 32.632 26.9641 32.632C26.9652 32.632 26.9663 32.632 26.9674 32.632C26.9685 32.632 26.9696 32.632 26.9707 32.632C26.9718 32.632 26.9729 32.632 26.9741 32.632C26.9752 32.632 26.9763 32.632 26.9774 32.632C26.9785 32.632 26.9796 32.632 26.9808 32.632C26.9819 32.632 26.983 32.632 26.9841 32.632C26.9853 32.632 26.9864 32.632 26.9875 32.632C26.9886 32.632 26.9898 32.632 26.9909 32.632C26.992 32.632 26.9932 32.632 26.9943 32.632C26.9954 32.632 26.9966 32.632 26.9977 32.632C26.9989 32.632 27 32.632 27.0011 32.632C27.0023 32.632 27.0034 32.632 27.0046 32.632C27.0057 32.632 27.0069 32.632 27.008 32.632C27.0092 32.632 27.0103 32.632 27.0115 32.632C27.0127 32.632 27.0138 32.632 27.015 32.632C27.0161 32.632 27.0173 32.632 27.0185 32.632C27.0196 32.632 27.0208 32.632 27.022 32.632C27.0231 32.632 27.0243 32.632 27.0255 32.632C27.0266 32.632 27.0278 32.632 27.029 32.632C27.0302 32.632 27.0313 32.632 27.0325 32.632C27.0337 32.632 27.0349 32.632 27.0361 32.632C27.0373 32.632 27.0384 32.632 27.0396 32.632C27.0408 32.632 27.042 32.632 27.0432 32.632C27.0444 32.632 27.0456 32.632 27.0468 32.632C27.048 32.632 27.0492 32.632 27.0504 32.632C27.0516 32.632 27.0528 32.632 27.054 32.632C27.0552 32.632 27.0564 32.632 27.0576 32.632C27.0588 32.632 27.06 32.632 27.0612 32.632C27.0624 32.632 27.0636 32.632 27.0648 32.632C27.0661 32.632 27.0673 32.632 27.0685 32.632C27.0697 32.632 27.0709 32.632 27.0722 32.632C27.0734 32.632 27.0746 32.632 27.0758 32.632C27.0771 32.632 27.0783 32.632 27.0795 32.632C27.0808 32.632 27.082 32.632 27.0832 32.632C27.0845 32.632 27.0857 32.632 27.0869 32.632C27.0882 32.632 27.0894 32.632 27.0906 32.632C27.0919 32.632 27.0931 32.632 27.0944 32.632C27.0956 32.632 27.0969 32.632 27.0981 32.632C27.0994 32.632 27.1006 32.632 27.1019 32.632C27.1031 32.632 27.1044 32.632 27.1056 32.632C27.1069 32.632 27.1082 32.632 27.1094 32.632C27.1107 32.632 27.112 32.632 27.1132 32.632C27.1145 32.632 27.1158 32.632 27.117 32.632C27.1183 32.632 27.1196 32.632 27.1208 32.632C27.1221 32.632 27.1234 32.632 27.1247 32.632C27.1259 32.632 27.1272 32.632 27.1285 32.632C27.1298 32.632 27.1311 32.632 27.1323 32.632C27.1336 32.632 27.1349 32.632 27.1362 32.632C27.1375 32.632 27.1388 32.632 27.1401 32.632C27.1414 32.632 27.1427 32.632 27.144 32.632C27.1453 32.632 27.1466 32.632 27.1479 32.632C27.1492 32.632 27.1505 32.632 27.1518 32.632C27.1531 32.632 27.1544 32.632 27.1557 32.632C27.157 32.632 27.1583 32.632 27.1596 32.632C27.1609 32.632 27.1623 32.632 27.1636 32.632C27.1649 32.632 27.1662 32.632 27.1675 32.632C27.1688 32.632 27.1702 32.632 27.1715 32.632C27.1728 32.632 27.1741 32.632 27.1755 32.632C27.1768 32.632 27.1781 32.632 27.1795 32.632C27.1808 32.632 27.1821 32.632 27.1835 32.632C27.1848 32.632 27.1861 32.632 27.1875 32.632C27.1888 32.632 27.1902 32.632 27.1915 32.632C27.1928 32.632 27.1942 32.632 27.1955 32.632C27.1969 32.632 27.1982 32.632 27.1996 32.632C27.2009 32.632 27.2023 32.632 27.2036 32.632C27.205 32.632 27.2064 32.632 27.2077 32.632C27.2091 32.632 27.2104 32.632 27.2118 32.632C27.2132 32.632 27.2145 32.632 27.2159 32.632C27.2173 32.632 27.2186 32.632 27.22 32.632C27.2214 32.632 27.2227 32.632 27.2241 32.632C27.2255 32.632 27.2269 32.632 27.2283 32.632C27.2296 32.632 27.231 32.632 27.2324 32.632C27.2338 32.632 27.2352 32.632 27.2366 32.632C27.2379 32.632 27.2393 32.632 27.2407 32.632C27.2421 32.632 27.2435 32.632 27.2449 32.632C27.2463 32.632 27.2477 32.632 27.2491 32.632C27.2505 32.632 27.2519 32.632 27.2533 32.632C27.2547 32.632 27.2561 32.632 27.2575 32.632C27.2589 32.632 27.2603 32.632 27.2617 32.632C27.2631 32.632 27.2645 32.632 27.266 32.632C27.2674 32.632 27.2688 32.632 27.2702 32.632C27.2716 32.632 27.273 32.632 27.2745 32.632C27.2759 32.632 27.2773 32.632 27.2787 32.632C27.2802 32.632 27.2816 32.632 27.283 32.632C27.2845 32.632 27.2859 32.632 27.2873 32.632C27.2888 32.632 27.2902 32.632 27.2916 32.632C27.2931 32.632 27.2945 32.632 27.2959 32.632C27.2974 32.632 27.2988 32.632 27.3003 32.632C27.3017 32.632 27.3032 32.632 27.3046 32.632C27.3061 32.632 27.3075 32.632 27.309 32.632C27.3104 32.632 27.3119 32.632 27.3133 32.632C27.3148 32.632 27.3162 32.632 27.3177 32.632C27.3192 32.632 27.3206 32.632 27.3221 32.632C27.3236 32.632 27.325 32.632 27.3265 32.632C27.328 32.632 27.3294 32.632 27.3309 32.632C27.3324 32.632 27.3339 32.632 27.3353 32.632C27.3368 32.632 27.3383 32.632 27.3398 32.632C27.3413 32.632 27.3427 32.632 27.3442 32.632C27.3457 32.632 27.3472 32.632 27.3487 32.632C27.3502 32.632 27.3517 32.632 27.3531 32.632C27.3546 32.632 27.3561 32.632 27.3576 32.632C27.3591 32.632 27.3606 32.632 27.3621 32.632C27.3636 32.632 27.3651 32.632 27.3666 32.632C27.3681 32.632 27.3696 32.632 27.3711 32.632C27.3727 32.632 27.3742 32.632 27.3757 32.632C27.3772 32.632 27.3787 32.632 27.3802 32.632C27.3817 32.632 27.3833 32.632 27.3848 32.632C27.3863 32.632 27.3878 32.632 27.3893 32.632C27.3909 32.632 27.3924 32.632 27.3939 32.632C27.3954 32.632 27.397 32.632 27.3985 32.632C27.4 32.632 27.4016 32.632 27.4031 32.632C27.4046 32.632 27.4062 32.632 27.4077 32.632C27.4093 32.632 27.4108 32.632 27.4123 32.632C27.4139 32.632 27.4154 32.632 27.417 32.632C27.4185 32.632 27.4201 32.632 27.4216 32.632C27.4232 32.632 27.4247 32.632 27.4263 32.632C27.4278 32.632 27.4294 32.632 27.4309 32.632C27.4325 32.632 27.4341 32.632 27.4356 32.632C27.4372 32.632 27.4388 32.632 27.4403 32.632C27.4419 32.632 27.4435 32.632 27.445 32.632C27.4466 32.632 27.4482 32.632 27.4497 32.632C27.4513 32.632 27.4529 32.632 27.4545 32.632C27.456 32.632 27.4576 32.632 27.4592 32.632C27.4608 32.632 27.4624 32.632 27.464 32.632C27.4655 32.632 27.4671 32.632 27.4687 32.632C27.4703 32.632 27.4719 32.632 27.4735 32.632C27.4751 32.632 27.4767 32.632 27.4783 32.632C27.4799 32.632 27.4815 32.632 27.4831 32.632C27.4847 32.632 27.4863 32.632 27.4879 32.632C27.4895 32.632 27.4911 32.632 27.4927 32.632C27.4943 32.632 27.4959 32.632 27.4976 32.632C27.4992 32.632 27.5008 32.632 27.5024 32.632C27.504 32.632 27.5056 32.632 27.5073 32.632C27.5089 32.632 27.5105 32.632 27.5121 32.632C27.5138 32.632 27.5154 32.632 27.517 32.632C27.5186 32.632 27.5203 32.632 27.5219 32.632C27.5235 32.632 27.5252 32.632 27.5268 32.632C27.5284 32.632 27.5301 32.632 27.5317 32.632C27.5334 32.632 27.535 32.632 27.5366 32.632C27.5383 32.632 27.5399 32.632 27.5416 32.632C27.5432 32.632 27.5449 32.632 27.5465 32.632C27.5482 32.632 27.5498 32.632 27.5515 32.632C27.5532 32.632 27.5548 32.632 27.5565 32.632C27.5581 32.632 27.5598 32.632 27.5615 32.632C27.5631 32.632 27.5648 32.632 27.5665 32.632C27.5681 32.632 27.5698 32.632 27.5715 32.632C27.5731 32.632 27.5748 32.632 27.5765 32.632C27.5782 32.632 27.5798 32.632 27.5815 32.632C27.5832 32.632 27.5849 32.632 27.5866 32.632C27.5883 32.632 27.5899 32.632 27.5916 32.632C27.5933 32.632 27.595 32.632 27.5967 32.632C27.5984 32.632 27.6001 32.632 27.6018 32.632C27.6035 32.632 27.6052 32.632 27.6069 32.632C27.6086 32.632 27.6103 32.632 27.612 32.632C27.6137 32.632 27.6154 32.632 27.6171 32.632C27.6188 32.632 27.6205 32.632 27.6222 32.632C27.6239 32.632 27.6256 32.632 27.6273 32.632C27.6291 32.632 27.6308 32.632 27.6325 32.632C27.6342 32.632 27.6359 32.632 27.6377 32.632C27.6394 32.632 27.6411 32.632 27.6428 32.632C27.6446 32.632 27.6463 32.632 27.648 32.632C27.6498 32.632 27.6515 32.632 27.6532 32.632C27.655 32.632 27.6567 32.632 27.6584 32.632C27.6602 32.632 27.6619 32.632 27.6636 32.632C27.6654 32.632 27.6671 32.632 27.6689 32.632C27.6706 32.632 27.6724 32.632 27.6741 32.632C27.6759 32.632 27.6776 32.632 27.6794 32.632C27.6811 32.632 27.6829 32.632 27.6846 32.632C27.6864 32.632 27.6882 32.632 27.6899 32.632C27.6917 32.632 27.6935 32.632 27.6952 32.632C27.697 32.632 27.6988 32.632 27.7005 32.632C27.7023 32.632 27.7041 32.632 27.7058 32.632C27.7076 32.632 27.7094 32.632 27.7112 32.632C27.7129 32.632 27.7147 32.632 27.7165 32.632C27.7183 32.632 27.7201 32.632 27.7218 32.632C27.7236 32.632 27.7254 32.632 27.7272 32.632C27.729 32.632 27.7308 32.632 27.7326 32.632C27.7344 32.632 27.7362 32.632 27.738 32.632C27.7398 32.632 27.7416 32.632 27.7434 32.632C27.7452 32.632 27.747 32.632 27.7488 32.632C27.7506 32.632 27.7524 32.632 27.7542 32.632C27.756 32.632 27.7578 32.632 27.7596 32.632C27.7614 32.632 27.7633 32.632 27.7651 32.632C27.7669 32.632 27.7687 32.632 27.7705 32.632C27.7723 32.632 27.7742 32.632 27.776 32.632C27.7778 32.632 27.7796 32.632 27.7815 32.632C27.7833 32.632 27.7851 32.632 27.787 32.632C27.7888 32.632 27.7906 32.632 27.7925 32.632C27.7943 32.632 27.7961 32.632 27.798 32.632C27.7998 32.632 27.8017 32.632 27.8035 32.632C27.8053 32.632 27.8072 32.632 27.809 32.632C27.8109 32.632 27.8127 32.632 27.8146 32.632C27.8164 32.632 27.8183 32.632 27.8201 32.632C27.822 32.632 27.8239 32.632 27.8257 32.632C27.8276 32.632 27.8294 32.632 27.8313 32.632C27.8332 32.632 27.835 32.632 27.8369 32.632C27.8388 32.632 27.8406 32.632 27.8425 32.632C27.8444 32.632 27.8463 32.632 27.8481 32.632C27.85 32.632 27.8519 32.632 27.8538 32.632C27.8556 32.632 27.8575 32.632 27.8594 32.632C27.8613 32.632 27.8632 32.632 27.8651 32.632C27.8669 32.632 27.8688 32.632 27.8707 32.632C27.8726 32.632 27.8745 32.632 27.8764 32.632C27.8783 32.632 27.8802 32.632 27.8821 32.632C27.884 32.632 27.8859 32.632 27.8878 32.632C27.8897 32.632 27.8916 32.632 27.8935 32.632C27.8954 32.632 27.8973 32.632 27.8992 32.632C27.9011 32.632 27.903 32.632 27.905 32.632C27.9069 32.632 27.9088 32.632 27.9107 32.632C27.9126 32.632 27.9145 32.632 27.9165 32.632C27.9184 32.632 27.9203 32.632 27.9222 32.632C27.9242 32.632 27.9261 32.632 27.928 32.632C27.93 32.632 27.9319 32.632 27.9338 32.632C27.9358 32.632 27.9377 32.632 27.9396 32.632C27.9416 32.632 27.9435 32.632 27.9454 32.632C27.9474 32.632 27.9493 32.632 27.9513 32.632C27.9532 32.632 27.9552 32.632 27.9571 32.632C27.9591 32.632 27.961 32.632 27.963 32.632C27.9649 32.632 27.9669 32.632 27.9688 32.632C27.9708 32.632 27.9727 32.632 27.9747 32.632C27.9767 32.632 27.9786 32.632 27.9806 32.632C27.9826 32.632 27.9845 32.632 27.9865 32.632C27.9885 32.632 27.9904 32.632 27.9924 32.632C27.9944 32.632 27.9964 32.632 27.9983 32.632C28.0003 32.632 28.0023 32.632 28.0043 32.632C28.0063 32.632 28.0082 32.632 28.0102 32.632C28.0122 32.632 28.0142 32.632 28.0162 32.632C28.0182 32.632 28.0202 32.632 28.0221 32.632C28.0241 32.632 28.0261 32.632 28.0281 32.632C28.0301 32.632 28.0321 32.632 28.0341 32.632C28.0361 32.632 28.0381 32.632 28.0401 32.632C28.0421 32.632 28.0441 32.632 28.0461 32.632C28.0482 32.632 28.0502 32.632 28.0522 32.632C28.0542 32.632 28.0562 32.632 28.0582 32.632C28.0602 32.632 28.0623 32.632 28.0643 32.632C28.0663 32.632 28.0683 32.632 28.0703 32.632C28.0724 32.632 28.0744 32.632 28.0764 32.632C28.0784 32.632 28.0805 32.632 28.0825 32.632C28.0845 32.632 28.0866 32.632 28.0886 32.632C28.0906 32.632 28.0927 32.632 28.0947 32.632C28.0968 32.632 28.0988 32.632 28.1008 32.632C28.1029 32.632 28.1049 32.632 28.107 32.632C28.109 32.632 28.1111 32.632 28.1131 32.632C28.1152 32.632 28.1172 32.632 28.1193 32.632C28.1213 32.632 28.1234 32.632 28.1254 32.632C28.1275 32.632 28.1296 32.632 28.1316 32.632C28.1337 32.632 28.1358 32.632 28.1378 32.632C28.1399 32.632 28.142 32.632 28.144 32.632C28.1461 32.632 28.1482 32.632 28.1502 32.632C28.1523 32.632 28.1544 32.632 28.1565 32.632C28.1585 32.632 28.1606 32.632 28.1627 32.632C28.1648 32.632 28.1669 32.632 28.169 32.632C28.171 32.632 28.1731 32.632 28.1752 32.632C28.1773 32.632 28.1794 32.632 28.1815 32.632C28.1836 32.632 28.1857 32.632 28.1878 32.632C28.1899 32.632 28.192 32.632 28.1941 32.632C28.1962 32.632 28.1983 32.632 28.2004 32.632C28.2025 32.632 28.2046 32.632 28.2067 32.632C28.2088 32.632 28.2109 32.632 28.2131 32.632C28.2152 32.632 28.2173 32.632 28.2194 32.632C28.2215 32.632 28.2236 32.632 28.2258 32.632C28.2279 32.632 28.23 32.632 28.2321 32.632C28.2343 32.632 28.2364 32.632 28.2385 32.632C28.2406 32.632 28.2428 32.632 28.2449 32.632C28.247 32.632 28.2492 32.632 28.2513 32.632C28.2534 32.632 28.2556 32.632 28.2577 32.632C28.2599 32.632 28.262 32.632 28.2641 32.632C28.2663 32.632 28.2684 32.632 28.2706 32.632C28.2727 32.632 28.2749 32.632 28.277 32.632C28.2792 32.632 28.2813 32.632 28.2835 32.632C28.2857 32.632 28.2878 32.632 28.29 32.632C28.2921 32.632 28.2943 32.632 28.2965 32.632C28.2986 32.632 28.3008 32.632 28.303 32.632C28.3051 32.632 28.3073 32.632 28.3095 32.632C28.3116 32.632 28.3138 32.632 28.316 32.632C28.3182 32.632 28.3203 32.632 28.3225 32.632C28.3247 32.632 28.3269 32.632 28.3291 32.632C28.3313 32.632 28.3334 32.632 28.3356 32.632C28.3378 32.632 28.34 32.632 28.3422 32.632C28.3444 32.632 28.3466 32.632 28.3488 32.632C28.351 32.632 28.3532 32.632 28.3554 32.632C28.3576 32.632 28.3598 32.632 28.362 32.632C28.3642 32.632 28.3664 32.632 28.3686 32.632C28.3708 32.632 28.373 32.632 28.3752 32.632C28.3774 32.632 28.3796 32.632 28.3818 32.632C28.3841 32.632 28.3863 32.632 28.3885 32.632C28.3907 32.632 28.3929 32.632 28.3952 32.632C28.3974 32.632 28.3996 32.632 28.4018 32.632C28.4041 32.632 28.4063 32.632 28.4085 32.632C28.4108 32.632 28.413 32.632 28.4152 32.632C28.4175 32.632 28.4197 32.632 28.4219 32.632C28.4242 32.632 28.4264 32.632 28.4286 32.632C28.4309 32.632 28.4331 32.632 28.4354 32.632C28.4376 32.632 28.4399 32.632 28.4421 32.632C28.4444 32.632 28.4466 32.632 28.4489 32.632C28.4511 32.632 28.4534 32.632 28.4556 32.632C28.4579 32.632 28.4602 32.632 28.4624 32.632C28.4647 32.632 28.467 32.632 28.4692 32.632C28.4715 32.632 28.4738 32.632 28.476 32.632C28.4783 32.632 28.4806 32.632 28.4828 32.632C28.4851 32.632 28.4874 32.632 28.4897 32.632C28.4919 32.632 28.4942 32.632 28.4965 32.632C28.4988 32.632 28.5011 32.632 28.5033 32.632C28.5056 32.632 28.5079 32.632 28.5102 32.632C28.5125 32.632 28.5148 32.632 28.5171 32.632C28.5194 32.632 28.5217 32.632 28.524 32.632C28.5263 32.632 28.5286 32.632 28.5309 32.632C28.5332 32.632 28.5355 32.632 28.5378 32.632C28.5401 32.632 28.5424 32.632 28.5447 32.632C28.547 32.632 28.5493 32.632 28.5516 32.632V28.632C28.5493 28.632 28.547 28.632 28.5447 28.632C28.5424 28.632 28.5401 28.632 28.5378 28.632C28.5355 28.632 28.5332 28.632 28.5309 28.632C28.5286 28.632 28.5263 28.632 28.524 28.632C28.5217 28.632 28.5194 28.632 28.5171 28.632C28.5148 28.632 28.5125 28.632 28.5102 28.632C28.5079 28.632 28.5056 28.632 28.5033 28.632C28.5011 28.632 28.4988 28.632 28.4965 28.632C28.4942 28.632 28.4919 28.632 28.4897 28.632C28.4874 28.632 28.4851 28.632 28.4828 28.632C28.4806 28.632 28.4783 28.632 28.476 28.632C28.4738 28.632 28.4715 28.632 28.4692 28.632C28.467 28.632 28.4647 28.632 28.4624 28.632C28.4602 28.632 28.4579 28.632 28.4556 28.632C28.4534 28.632 28.4511 28.632 28.4489 28.632C28.4466 28.632 28.4444 28.632 28.4421 28.632C28.4399 28.632 28.4376 28.632 28.4354 28.632C28.4331 28.632 28.4309 28.632 28.4286 28.632C28.4264 28.632 28.4242 28.632 28.4219 28.632C28.4197 28.632 28.4175 28.632 28.4152 28.632C28.413 28.632 28.4108 28.632 28.4085 28.632C28.4063 28.632 28.4041 28.632 28.4018 28.632C28.3996 28.632 28.3974 28.632 28.3952 28.632C28.3929 28.632 28.3907 28.632 28.3885 28.632C28.3863 28.632 28.3841 28.632 28.3818 28.632C28.3796 28.632 28.3774 28.632 28.3752 28.632C28.373 28.632 28.3708 28.632 28.3686 28.632C28.3664 28.632 28.3642 28.632 28.362 28.632C28.3598 28.632 28.3576 28.632 28.3554 28.632C28.3532 28.632 28.351 28.632 28.3488 28.632C28.3466 28.632 28.3444 28.632 28.3422 28.632C28.34 28.632 28.3378 28.632 28.3356 28.632C28.3334 28.632 28.3313 28.632 28.3291 28.632C28.3269 28.632 28.3247 28.632 28.3225 28.632C28.3203 28.632 28.3182 28.632 28.316 28.632C28.3138 28.632 28.3116 28.632 28.3095 28.632C28.3073 28.632 28.3051 28.632 28.303 28.632C28.3008 28.632 28.2986 28.632 28.2965 28.632C28.2943 28.632 28.2921 28.632 28.29 28.632C28.2878 28.632 28.2857 28.632 28.2835 28.632C28.2813 28.632 28.2792 28.632 28.277 28.632C28.2749 28.632 28.2727 28.632 28.2706 28.632C28.2684 28.632 28.2663 28.632 28.2641 28.632C28.262 28.632 28.2599 28.632 28.2577 28.632C28.2556 28.632 28.2534 28.632 28.2513 28.632C28.2492 28.632 28.247 28.632 28.2449 28.632C28.2428 28.632 28.2406 28.632 28.2385 28.632C28.2364 28.632 28.2343 28.632 28.2321 28.632C28.23 28.632 28.2279 28.632 28.2258 28.632C28.2236 28.632 28.2215 28.632 28.2194 28.632C28.2173 28.632 28.2152 28.632 28.2131 28.632C28.2109 28.632 28.2088 28.632 28.2067 28.632C28.2046 28.632 28.2025 28.632 28.2004 28.632C28.1983 28.632 28.1962 28.632 28.1941 28.632C28.192 28.632 28.1899 28.632 28.1878 28.632C28.1857 28.632 28.1836 28.632 28.1815 28.632C28.1794 28.632 28.1773 28.632 28.1752 28.632C28.1731 28.632 28.171 28.632 28.169 28.632C28.1669 28.632 28.1648 28.632 28.1627 28.632C28.1606 28.632 28.1585 28.632 28.1565 28.632C28.1544 28.632 28.1523 28.632 28.1502 28.632C28.1482 28.632 28.1461 28.632 28.144 28.632C28.142 28.632 28.1399 28.632 28.1378 28.632C28.1358 28.632 28.1337 28.632 28.1316 28.632C28.1296 28.632 28.1275 28.632 28.1254 28.632C28.1234 28.632 28.1213 28.632 28.1193 28.632C28.1172 28.632 28.1152 28.632 28.1131 28.632C28.1111 28.632 28.109 28.632 28.107 28.632C28.1049 28.632 28.1029 28.632 28.1008 28.632C28.0988 28.632 28.0968 28.632 28.0947 28.632C28.0927 28.632 28.0906 28.632 28.0886 28.632C28.0866 28.632 28.0845 28.632 28.0825 28.632C28.0805 28.632 28.0784 28.632 28.0764 28.632C28.0744 28.632 28.0724 28.632 28.0703 28.632C28.0683 28.632 28.0663 28.632 28.0643 28.632C28.0623 28.632 28.0602 28.632 28.0582 28.632C28.0562 28.632 28.0542 28.632 28.0522 28.632C28.0502 28.632 28.0482 28.632 28.0461 28.632C28.0441 28.632 28.0421 28.632 28.0401 28.632C28.0381 28.632 28.0361 28.632 28.0341 28.632C28.0321 28.632 28.0301 28.632 28.0281 28.632C28.0261 28.632 28.0241 28.632 28.0221 28.632C28.0202 28.632 28.0182 28.632 28.0162 28.632C28.0142 28.632 28.0122 28.632 28.0102 28.632C28.0082 28.632 28.0063 28.632 28.0043 28.632C28.0023 28.632 28.0003 28.632 27.9983 28.632C27.9964 28.632 27.9944 28.632 27.9924 28.632C27.9904 28.632 27.9885 28.632 27.9865 28.632C27.9845 28.632 27.9826 28.632 27.9806 28.632C27.9786 28.632 27.9767 28.632 27.9747 28.632C27.9727 28.632 27.9708 28.632 27.9688 28.632C27.9669 28.632 27.9649 28.632 27.963 28.632C27.961 28.632 27.9591 28.632 27.9571 28.632C27.9552 28.632 27.9532 28.632 27.9513 28.632C27.9493 28.632 27.9474 28.632 27.9454 28.632C27.9435 28.632 27.9416 28.632 27.9396 28.632C27.9377 28.632 27.9358 28.632 27.9338 28.632C27.9319 28.632 27.93 28.632 27.928 28.632C27.9261 28.632 27.9242 28.632 27.9222 28.632C27.9203 28.632 27.9184 28.632 27.9165 28.632C27.9145 28.632 27.9126 28.632 27.9107 28.632C27.9088 28.632 27.9069 28.632 27.905 28.632C27.903 28.632 27.9011 28.632 27.8992 28.632C27.8973 28.632 27.8954 28.632 27.8935 28.632C27.8916 28.632 27.8897 28.632 27.8878 28.632C27.8859 28.632 27.884 28.632 27.8821 28.632C27.8802 28.632 27.8783 28.632 27.8764 28.632C27.8745 28.632 27.8726 28.632 27.8707 28.632C27.8688 28.632 27.8669 28.632 27.8651 28.632C27.8632 28.632 27.8613 28.632 27.8594 28.632C27.8575 28.632 27.8556 28.632 27.8538 28.632C27.8519 28.632 27.85 28.632 27.8481 28.632C27.8463 28.632 27.8444 28.632 27.8425 28.632C27.8406 28.632 27.8388 28.632 27.8369 28.632C27.835 28.632 27.8332 28.632 27.8313 28.632C27.8294 28.632 27.8276 28.632 27.8257 28.632C27.8239 28.632 27.822 28.632 27.8201 28.632C27.8183 28.632 27.8164 28.632 27.8146 28.632C27.8127 28.632 27.8109 28.632 27.809 28.632C27.8072 28.632 27.8053 28.632 27.8035 28.632C27.8017 28.632 27.7998 28.632 27.798 28.632C27.7961 28.632 27.7943 28.632 27.7925 28.632C27.7906 28.632 27.7888 28.632 27.787 28.632C27.7851 28.632 27.7833 28.632 27.7815 28.632C27.7796 28.632 27.7778 28.632 27.776 28.632C27.7742 28.632 27.7723 28.632 27.7705 28.632C27.7687 28.632 27.7669 28.632 27.7651 28.632C27.7633 28.632 27.7614 28.632 27.7596 28.632C27.7578 28.632 27.756 28.632 27.7542 28.632C27.7524 28.632 27.7506 28.632 27.7488 28.632C27.747 28.632 27.7452 28.632 27.7434 28.632C27.7416 28.632 27.7398 28.632 27.738 28.632C27.7362 28.632 27.7344 28.632 27.7326 28.632C27.7308 28.632 27.729 28.632 27.7272 28.632C27.7254 28.632 27.7236 28.632 27.7218 28.632C27.7201 28.632 27.7183 28.632 27.7165 28.632C27.7147 28.632 27.7129 28.632 27.7112 28.632C27.7094 28.632 27.7076 28.632 27.7058 28.632C27.7041 28.632 27.7023 28.632 27.7005 28.632C27.6988 28.632 27.697 28.632 27.6952 28.632C27.6935 28.632 27.6917 28.632 27.6899 28.632C27.6882 28.632 27.6864 28.632 27.6846 28.632C27.6829 28.632 27.6811 28.632 27.6794 28.632C27.6776 28.632 27.6759 28.632 27.6741 28.632C27.6724 28.632 27.6706 28.632 27.6689 28.632C27.6671 28.632 27.6654 28.632 27.6636 28.632C27.6619 28.632 27.6602 28.632 27.6584 28.632C27.6567 28.632 27.655 28.632 27.6532 28.632C27.6515 28.632 27.6498 28.632 27.648 28.632C27.6463 28.632 27.6446 28.632 27.6428 28.632C27.6411 28.632 27.6394 28.632 27.6377 28.632C27.6359 28.632 27.6342 28.632 27.6325 28.632C27.6308 28.632 27.6291 28.632 27.6273 28.632C27.6256 28.632 27.6239 28.632 27.6222 28.632C27.6205 28.632 27.6188 28.632 27.6171 28.632C27.6154 28.632 27.6137 28.632 27.612 28.632C27.6103 28.632 27.6086 28.632 27.6069 28.632C27.6052 28.632 27.6035 28.632 27.6018 28.632C27.6001 28.632 27.5984 28.632 27.5967 28.632C27.595 28.632 27.5933 28.632 27.5916 28.632C27.5899 28.632 27.5883 28.632 27.5866 28.632C27.5849 28.632 27.5832 28.632 27.5815 28.632C27.5798 28.632 27.5782 28.632 27.5765 28.632C27.5748 28.632 27.5731 28.632 27.5715 28.632C27.5698 28.632 27.5681 28.632 27.5665 28.632C27.5648 28.632 27.5631 28.632 27.5615 28.632C27.5598 28.632 27.5581 28.632 27.5565 28.632C27.5548 28.632 27.5532 28.632 27.5515 28.632C27.5498 28.632 27.5482 28.632 27.5465 28.632C27.5449 28.632 27.5432 28.632 27.5416 28.632C27.5399 28.632 27.5383 28.632 27.5366 28.632C27.535 28.632 27.5334 28.632 27.5317 28.632C27.5301 28.632 27.5284 28.632 27.5268 28.632C27.5252 28.632 27.5235 28.632 27.5219 28.632C27.5203 28.632 27.5186 28.632 27.517 28.632C27.5154 28.632 27.5138 28.632 27.5121 28.632C27.5105 28.632 27.5089 28.632 27.5073 28.632C27.5056 28.632 27.504 28.632 27.5024 28.632C27.5008 28.632 27.4992 28.632 27.4976 28.632C27.4959 28.632 27.4943 28.632 27.4927 28.632C27.4911 28.632 27.4895 28.632 27.4879 28.632C27.4863 28.632 27.4847 28.632 27.4831 28.632C27.4815 28.632 27.4799 28.632 27.4783 28.632C27.4767 28.632 27.4751 28.632 27.4735 28.632C27.4719 28.632 27.4703 28.632 27.4687 28.632C27.4671 28.632 27.4655 28.632 27.464 28.632C27.4624 28.632 27.4608 28.632 27.4592 28.632C27.4576 28.632 27.456 28.632 27.4545 28.632C27.4529 28.632 27.4513 28.632 27.4497 28.632C27.4482 28.632 27.4466 28.632 27.445 28.632C27.4435 28.632 27.4419 28.632 27.4403 28.632C27.4388 28.632 27.4372 28.632 27.4356 28.632C27.4341 28.632 27.4325 28.632 27.4309 28.632C27.4294 28.632 27.4278 28.632 27.4263 28.632C27.4247 28.632 27.4232 28.632 27.4216 28.632C27.4201 28.632 27.4185 28.632 27.417 28.632C27.4154 28.632 27.4139 28.632 27.4123 28.632C27.4108 28.632 27.4093 28.632 27.4077 28.632C27.4062 28.632 27.4046 28.632 27.4031 28.632C27.4016 28.632 27.4 28.632 27.3985 28.632C27.397 28.632 27.3954 28.632 27.3939 28.632C27.3924 28.632 27.3909 28.632 27.3893 28.632C27.3878 28.632 27.3863 28.632 27.3848 28.632C27.3833 28.632 27.3817 28.632 27.3802 28.632C27.3787 28.632 27.3772 28.632 27.3757 28.632C27.3742 28.632 27.3727 28.632 27.3711 28.632C27.3696 28.632 27.3681 28.632 27.3666 28.632C27.3651 28.632 27.3636 28.632 27.3621 28.632C27.3606 28.632 27.3591 28.632 27.3576 28.632C27.3561 28.632 27.3546 28.632 27.3531 28.632C27.3517 28.632 27.3502 28.632 27.3487 28.632C27.3472 28.632 27.3457 28.632 27.3442 28.632C27.3427 28.632 27.3413 28.632 27.3398 28.632C27.3383 28.632 27.3368 28.632 27.3353 28.632C27.3339 28.632 27.3324 28.632 27.3309 28.632C27.3294 28.632 27.328 28.632 27.3265 28.632C27.325 28.632 27.3236 28.632 27.3221 28.632C27.3206 28.632 27.3192 28.632 27.3177 28.632C27.3162 28.632 27.3148 28.632 27.3133 28.632C27.3119 28.632 27.3104 28.632 27.309 28.632C27.3075 28.632 27.3061 28.632 27.3046 28.632C27.3032 28.632 27.3017 28.632 27.3003 28.632C27.2988 28.632 27.2974 28.632 27.2959 28.632C27.2945 28.632 27.2931 28.632 27.2916 28.632C27.2902 28.632 27.2888 28.632 27.2873 28.632C27.2859 28.632 27.2845 28.632 27.283 28.632C27.2816 28.632 27.2802 28.632 27.2787 28.632C27.2773 28.632 27.2759 28.632 27.2745 28.632C27.273 28.632 27.2716 28.632 27.2702 28.632C27.2688 28.632 27.2674 28.632 27.266 28.632C27.2645 28.632 27.2631 28.632 27.2617 28.632C27.2603 28.632 27.2589 28.632 27.2575 28.632C27.2561 28.632 27.2547 28.632 27.2533 28.632C27.2519 28.632 27.2505 28.632 27.2491 28.632C27.2477 28.632 27.2463 28.632 27.2449 28.632C27.2435 28.632 27.2421 28.632 27.2407 28.632C27.2393 28.632 27.2379 28.632 27.2366 28.632C27.2352 28.632 27.2338 28.632 27.2324 28.632C27.231 28.632 27.2296 28.632 27.2283 28.632C27.2269 28.632 27.2255 28.632 27.2241 28.632C27.2227 28.632 27.2214 28.632 27.22 28.632C27.2186 28.632 27.2173 28.632 27.2159 28.632C27.2145 28.632 27.2132 28.632 27.2118 28.632C27.2104 28.632 27.2091 28.632 27.2077 28.632C27.2064 28.632 27.205 28.632 27.2036 28.632C27.2023 28.632 27.2009 28.632 27.1996 28.632C27.1982 28.632 27.1969 28.632 27.1955 28.632C27.1942 28.632 27.1928 28.632 27.1915 28.632C27.1902 28.632 27.1888 28.632 27.1875 28.632C27.1861 28.632 27.1848 28.632 27.1835 28.632C27.1821 28.632 27.1808 28.632 27.1795 28.632C27.1781 28.632 27.1768 28.632 27.1755 28.632C27.1741 28.632 27.1728 28.632 27.1715 28.632C27.1702 28.632 27.1688 28.632 27.1675 28.632C27.1662 28.632 27.1649 28.632 27.1636 28.632C27.1623 28.632 27.1609 28.632 27.1596 28.632C27.1583 28.632 27.157 28.632 27.1557 28.632C27.1544 28.632 27.1531 28.632 27.1518 28.632C27.1505 28.632 27.1492 28.632 27.1479 28.632C27.1466 28.632 27.1453 28.632 27.144 28.632C27.1427 28.632 27.1414 28.632 27.1401 28.632C27.1388 28.632 27.1375 28.632 27.1362 28.632C27.1349 28.632 27.1336 28.632 27.1323 28.632C27.1311 28.632 27.1298 28.632 27.1285 28.632C27.1272 28.632 27.1259 28.632 27.1247 28.632C27.1234 28.632 27.1221 28.632 27.1208 28.632C27.1196 28.632 27.1183 28.632 27.117 28.632C27.1158 28.632 27.1145 28.632 27.1132 28.632C27.112 28.632 27.1107 28.632 27.1094 28.632C27.1082 28.632 27.1069 28.632 27.1056 28.632C27.1044 28.632 27.1031 28.632 27.1019 28.632C27.1006 28.632 27.0994 28.632 27.0981 28.632C27.0969 28.632 27.0956 28.632 27.0944 28.632C27.0931 28.632 27.0919 28.632 27.0906 28.632C27.0894 28.632 27.0882 28.632 27.0869 28.632C27.0857 28.632 27.0845 28.632 27.0832 28.632C27.082 28.632 27.0808 28.632 27.0795 28.632C27.0783 28.632 27.0771 28.632 27.0758 28.632C27.0746 28.632 27.0734 28.632 27.0722 28.632C27.0709 28.632 27.0697 28.632 27.0685 28.632C27.0673 28.632 27.0661 28.632 27.0648 28.632C27.0636 28.632 27.0624 28.632 27.0612 28.632C27.06 28.632 27.0588 28.632 27.0576 28.632C27.0564 28.632 27.0552 28.632 27.054 28.632C27.0528 28.632 27.0516 28.632 27.0504 28.632C27.0492 28.632 27.048 28.632 27.0468 28.632C27.0456 28.632 27.0444 28.632 27.0432 28.632C27.042 28.632 27.0408 28.632 27.0396 28.632C27.0384 28.632 27.0373 28.632 27.0361 28.632C27.0349 28.632 27.0337 28.632 27.0325 28.632C27.0313 28.632 27.0302 28.632 27.029 28.632C27.0278 28.632 27.0266 28.632 27.0255 28.632C27.0243 28.632 27.0231 28.632 27.022 28.632C27.0208 28.632 27.0196 28.632 27.0185 28.632C27.0173 28.632 27.0161 28.632 27.015 28.632C27.0138 28.632 27.0127 28.632 27.0115 28.632C27.0103 28.632 27.0092 28.632 27.008 28.632C27.0069 28.632 27.0057 28.632 27.0046 28.632C27.0034 28.632 27.0023 28.632 27.0011 28.632C27 28.632 26.9989 28.632 26.9977 28.632C26.9966 28.632 26.9954 28.632 26.9943 28.632C26.9932 28.632 26.992 28.632 26.9909 28.632C26.9898 28.632 26.9886 28.632 26.9875 28.632C26.9864 28.632 26.9853 28.632 26.9841 28.632C26.983 28.632 26.9819 28.632 26.9808 28.632C26.9796 28.632 26.9785 28.632 26.9774 28.632C26.9763 28.632 26.9752 28.632 26.9741 28.632C26.9729 28.632 26.9718 28.632 26.9707 28.632C26.9696 28.632 26.9685 28.632 26.9674 28.632C26.9663 28.632 26.9652 28.632 26.9641 28.632C26.963 28.632 26.9619 28.632 26.9608 28.632C26.9597 28.632 26.9586 28.632 26.9575 28.632C26.9564 28.632 26.9553 28.632 26.9542 28.632C26.9531 28.632 26.952 28.632 26.951 28.632C26.9499 28.632 26.9488 28.632 26.9477 28.632C26.9466 28.632 26.9455 28.632 26.9445 28.632C26.9434 28.632 26.9423 28.632 26.9412 28.632C26.9402 28.632 26.9391 28.632 26.938 28.632C26.937 28.632 26.9359 28.632 26.9348 28.632C26.9338 28.632 26.9327 28.632 26.9316 28.632C26.9306 28.632 26.9295 28.632 26.9284 28.632C26.9274 28.632 26.9263 28.632 26.9253 28.632C26.9242 28.632 26.9232 28.632 26.9221 28.632C26.9211 28.632 26.92 28.632 26.919 28.632C26.9179 28.632 26.9169 28.632 26.9158 28.632C26.9148 28.632 26.9137 28.632 26.9127 28.632C26.9117 28.632 26.9106 28.632 26.9096 28.632C26.9086 28.632 26.9075 28.632 26.9065 28.632C26.9055 28.632 26.9044 28.632 26.9034 28.632C26.9024 28.632 26.9014 28.632 26.9003 28.632C26.8993 28.632 26.8983 28.632 26.8973 28.632C26.8963 28.632 26.8952 28.632 26.8942 28.632C26.8932 28.632 26.8922 28.632 26.8912 28.632C26.8902 28.632 26.8892 28.632 26.8881 28.632C26.8871 28.632 26.8861 28.632 26.8851 28.632C26.8841 28.632 26.8831 28.632 26.8821 28.632C26.8811 28.632 26.8801 28.632 26.8791 28.632C26.8781 28.632 26.8771 28.632 26.8761 28.632C26.8752 28.632 26.8742 28.632 26.8732 28.632C26.8722 28.632 26.8712 28.632 26.8702 28.632C26.8692 28.632 26.8683 28.632 26.8673 28.632C26.8663 28.632 26.8653 28.632 26.8643 28.632C26.8634 28.632 26.8624 28.632 26.8614 28.632C26.8604 28.632 26.8595 28.632 26.8585 28.632C26.8575 28.632 26.8566 28.632 26.8556 28.632C26.8546 28.632 26.8537 28.632 26.8527 28.632C26.8517 28.632 26.8508 28.632 26.8498 28.632C26.8489 28.632 26.8479 28.632 26.847 28.632C26.846 28.632 26.8451 28.632 26.8441 28.632C26.8432 28.632 26.8422 28.632 26.8413 28.632C26.8403 28.632 26.8394 28.632 26.8384 28.632C26.8375 28.632 26.8366 28.632 26.8356 28.632C26.8347 28.632 26.8338 28.632 26.8328 28.632C26.8319 28.632 26.831 28.632 26.83 28.632C26.8291 28.632 26.8282 28.632 26.8272 28.632C26.8263 28.632 26.8254 28.632 26.8245 28.632C26.8235 28.632 26.8226 28.632 26.8217 28.632C26.8208 28.632 26.8199 28.632 26.819 28.632C26.818 28.632 26.8171 28.632 26.8162 28.632C26.8153 28.632 26.8144 28.632 26.8135 28.632C26.8126 28.632 26.8117 28.632 26.8108 28.632C26.8099 28.632 26.809 28.632 26.8081 28.632C26.8072 28.632 26.8063 28.632 26.8054 28.632C26.8045 28.632 26.8036 28.632 26.8027 28.632C26.8018 28.632 26.8009 28.632 26.8001 28.632C26.7992 28.632 26.7983 28.632 26.7974 28.632C26.7965 28.632 26.7956 28.632 26.7948 28.632C26.7939 28.632 26.793 28.632 26.7921 28.632C26.7913 28.632 26.7904 28.632 26.7895 28.632C26.7886 28.632 26.7878 28.632 26.7869 28.632C26.786 28.632 26.7852 28.632 26.7843 28.632C26.7834 28.632 26.7826 28.632 26.7817 28.632C26.7809 28.632 26.78 28.632 26.7791 28.632C26.7783 28.632 26.7774 28.632 26.7766 28.632C26.7757 28.632 26.7749 28.632 26.774 28.632C26.7732 28.632 26.7723 28.632 26.7715 28.632C26.7707 28.632 26.7698 28.632 26.769 28.632C26.7681 28.632 26.7673 28.632 26.7665 28.632C26.7656 28.632 26.7648 28.632 26.764 28.632C26.7631 28.632 26.7623 28.632 26.7615 28.632C26.7606 28.632 26.7598 28.632 26.759 28.632C26.7582 28.632 26.7573 28.632 26.7565 28.632C26.7557 28.632 26.7549 28.632 26.7541 28.632C26.7533 28.632 26.7524 28.632 26.7516 28.632C26.7508 28.632 26.75 28.632 26.7492 28.632C26.7484 28.632 26.7476 28.632 26.7468 28.632C26.746 28.632 26.7452 28.632 26.7444 28.632C26.7436 28.632 26.7428 28.632 26.742 28.632C26.7412 28.632 26.7404 28.632 26.7396 28.632C26.7388 28.632 26.738 28.632 26.7372 28.632C26.7364 28.632 26.7356 28.632 26.7348 28.632C26.7341 28.632 26.7333 28.632 26.7325 28.632C26.7317 28.632 26.7309 28.632 26.7302 28.632C26.7294 28.632 26.7286 28.632 26.7278 28.632C26.7271 28.632 26.7263 28.632 26.7255 28.632C26.7248 28.632 26.724 28.632 26.7232 28.632C26.7225 28.632 26.7217 28.632 26.7209 28.632C26.7202 28.632 26.7194 28.632 26.7186 28.632C26.7179 28.632 26.7171 28.632 26.7164 28.632C26.7156 28.632 26.7149 28.632 26.7141 28.632C26.7134 28.632 26.7126 28.632 26.7119 28.632C26.7111 28.632 26.7104 28.632 26.7096 28.632C26.7089 28.632 26.7082 28.632 26.7074 28.632C26.7067 28.632 26.706 28.632 26.7052 28.632C26.7045 28.632 26.7038 28.632 26.703 28.632C26.7023 28.632 26.7016 28.632 26.7008 28.632C26.7001 28.632 26.6994 28.632 26.6987 28.632C26.6979 28.632 26.6972 28.632 26.6965 28.632C26.6958 28.632 26.6951 28.632 26.6943 28.632C26.6936 28.632 26.6929 28.632 26.6922 28.632C26.6915 28.632 26.6908 28.632 26.6901 28.632C26.6894 28.632 26.6887 28.632 26.688 28.632C26.6873 28.632 26.6866 28.632 26.6859 28.632C26.6852 28.632 26.6845 28.632 26.6838 28.632C26.6831 28.632 26.6824 28.632 26.6817 28.632C26.681 28.632 26.6803 28.632 26.6796 28.632C26.6789 28.632 26.6783 28.632 26.6776 28.632C26.6769 28.632 26.6762 28.632 26.6755 28.632C26.6748 28.632 26.6742 28.632 26.6735 28.632C26.6728 28.632 26.6721 28.632 26.6715 28.632C26.6708 28.632 26.6701 28.632 26.6695 28.632C26.6688 28.632 26.6681 28.632 26.6675 28.632C26.6668 28.632 26.6661 28.632 26.6655 28.632C26.6648 28.632 26.6642 28.632 26.6635 28.632C26.6628 28.632 26.6622 28.632 26.6615 28.632C26.6609 28.632 26.6602 28.632 26.6596 28.632C26.6589 28.632 26.6583 28.632 26.6576 28.632C26.657 28.632 26.6564 28.632 26.6557 28.632C26.6551 28.632 26.6544 28.632 26.6538 28.632C26.6532 28.632 26.6525 28.632 26.6519 28.632C26.6513 28.632 26.6506 28.632 26.65 28.632C26.6494 28.632 26.6488 28.632 26.6481 28.632C26.6475 28.632 26.6469 28.632 26.6463 28.632C26.6456 28.632 26.645 28.632 26.6444 28.632C26.6438 28.632 26.6432 28.632 26.6426 28.632C26.6419 28.632 26.6413 28.632 26.6407 28.632C26.6401 28.632 26.6395 28.632 26.6389 28.632C26.6383 28.632 26.6377 28.632 26.6371 28.632C26.6365 28.632 26.6359 28.632 26.6353 28.632C26.6347 28.632 26.6341 28.632 26.6335 28.632C26.6329 28.632 26.6323 28.632 26.6317 28.632C26.6311 28.632 26.6305 28.632 26.63 28.632C26.6294 28.632 26.6288 28.632 26.6282 28.632C26.6276 28.632 26.627 28.632 26.6265 28.632C26.6259 28.632 26.6253 28.632 26.6247 28.632C26.6242 28.632 26.6236 28.632 26.623 28.632C26.6225 28.632 26.6219 28.632 26.6213 28.632C26.6208 28.632 26.6202 28.632 26.6196 28.632C26.6191 28.632 26.6185 28.632 26.6179 28.632C26.6174 28.632 26.6168 28.632 26.6163 28.632C26.6157 28.632 26.6152 28.632 26.6146 28.632C26.6141 28.632 26.6135 28.632 26.613 28.632C26.6124 28.632 26.6119 28.632 26.6113 28.632C26.6108 28.632 26.6103 28.632 26.6097 28.632C26.6092 28.632 26.6086 28.632 26.6081 28.632C26.6076 28.632 26.607 28.632 26.6065 28.632C26.606 28.632 26.6054 28.632 26.6049 28.632C26.6044 28.632 26.6039 28.632 26.6033 28.632C26.6028 28.632 26.6023 28.632 26.6018 28.632C26.6013 28.632 26.6007 28.632 26.6002 28.632C26.5997 28.632 26.5992 28.632 26.5987 28.632C26.5982 28.632 26.5977 28.632 26.5971 28.632C26.5966 28.632 26.5961 28.632 26.5956 28.632C26.5951 28.632 26.5946 28.632 26.5941 28.632C26.5936 28.632 26.5931 28.632 26.5926 28.632C26.5921 28.632 26.5916 28.632 26.5911 28.632C26.5907 28.632 26.5902 28.632 26.5897 28.632C26.5892 28.632 26.5887 28.632 26.5882 28.632C26.5877 28.632 26.5873 28.632 26.5868 28.632C26.5863 28.632 26.5858 28.632 26.5853 28.632C26.5849 28.632 26.5844 28.632 26.5839 28.632C26.5834 28.632 26.583 28.632 26.5825 28.632C26.582 28.632 26.5816 28.632 26.5811 28.632C26.5806 28.632 26.5802 28.632 26.5797 28.632C26.5793 28.632 26.5788 28.632 26.5783 28.632C26.5779 28.632 26.5774 28.632 26.577 28.632C26.5765 28.632 26.5761 28.632 26.5756 28.632C26.5752 28.632 26.5747 28.632 26.5743 28.632C26.5738 28.632 26.5734 28.632 26.5729 28.632C26.5725 28.632 26.5721 28.632 26.5716 28.632C26.5712 28.632 26.5708 28.632 26.5703 28.632C26.5699 28.632 26.5695 28.632 26.569 28.632C26.5686 28.632 26.5682 28.632 26.5677 28.632C26.5673 28.632 26.5669 28.632 26.5665 28.632C26.566 28.632 26.5656 28.632 26.5652 28.632C26.5648 28.632 26.5644 28.632 26.564 28.632C26.5635 28.632 26.5631 28.632 26.5627 28.632C26.5623 28.632 26.5619 28.632 26.5615 28.632C26.5611 28.632 26.5607 28.632 26.5603 28.632C26.5599 28.632 26.5595 28.632 26.5591 28.632C26.5587 28.632 26.5583 28.632 26.5579 28.632C26.5575 28.632 26.5571 28.632 26.5567 28.632C26.5563 28.632 26.5559 28.632 26.5556 28.632C26.5552 28.632 26.5548 28.632 26.5544 28.632C26.554 28.632 26.5536 28.632 26.5533 28.632C26.5529 28.632 26.5525 28.632 26.5521 28.632C26.5518 28.632 26.5514 28.632 26.551 28.632C26.5506 28.632 26.5503 28.632 26.5499 28.632C26.5495 28.632 26.5492 28.632 26.5488 28.632C26.5484 28.632 26.5481 28.632 26.5477 28.632C26.5474 28.632 26.547 28.632 26.5466 28.632C26.5463 28.632 26.5459 28.632 26.5456 28.632C26.5452 28.632 26.5449 28.632 26.5445 28.632C26.5442 28.632 26.5438 28.632 26.5435 28.632C26.5432 28.632 26.5428 28.632 26.5425 28.632C26.5421 28.632 26.5418 28.632 26.5415 28.632C26.5411 28.632 26.5408 28.632 26.5405 28.632C26.5401 28.632 26.5398 28.632 26.5395 28.632C26.5391 28.632 26.5388 28.632 26.5385 28.632C26.5382 28.632 26.5378 28.632 26.5375 28.632C26.5372 28.632 26.5369 28.632 26.5366 28.632C26.5363 28.632 26.5359 28.632 26.5356 28.632V32.632ZM28.5516 32.632C29.1814 32.632 29.7468 32.611 30.2307 32.5617C30.6763 32.5162 31.2043 32.4334 31.6729 32.2382L30.1344 28.5458C30.219 28.5106 30.1629 28.5478 29.8246 28.5823C29.5245 28.613 29.1058 28.632 28.5516 28.632V32.632ZM31.7159 32.2196C32.7418 31.7636 33.2525 30.7975 33.521 30.1455L29.8223 28.6225C29.7893 28.7026 29.7618 28.7587 29.7418 28.7953C29.7216 28.8323 29.7134 28.8416 29.7208 28.8319C29.7298 28.82 29.8414 28.6755 30.0913 28.5644L31.7159 32.2196ZM33.4813 30.2356C33.8706 29.4082 34.0556 28.523 34.0556 27.608H30.0556C30.0556 27.973 29.9846 28.2718 29.862 28.5324L33.4813 30.2356ZM34.0556 27.608C34.0556 26.3397 33.7372 25.0211 32.7498 24.0338L29.9214 26.8622C29.9223 26.8631 29.9272 26.8679 29.9356 26.882C29.9445 26.8968 29.9605 26.9273 29.9783 26.9805C30.015 27.0907 30.0556 27.2887 30.0556 27.608H34.0556ZM33.4532 42.9985C34.156 42.3961 34.4609 41.5452 34.6199 40.9091L30.7393 39.9389C30.7202 40.0154 30.7025 40.0729 30.688 40.1142C30.6734 40.1558 30.6639 40.1752 30.6628 40.1776C30.6615 40.1802 30.672 40.1583 30.6993 40.1212C30.7268 40.0838 30.7752 40.0256 30.85 39.9615L33.4532 42.9985ZM34.5984 40.9883C34.81 40.2689 34.9196 39.535 34.9196 38.792H30.9196C30.9196 39.137 30.8693 39.4911 30.7609 39.8597L34.5984 40.9883ZM34.9196 38.792C34.9196 37.9278 34.7958 37.088 34.529 36.2875L30.7343 37.5525C30.8514 37.904 30.9196 38.3122 30.9196 38.792H34.9196ZM34.5658 36.411C34.3629 35.6401 34.0034 34.7648 33.2884 34.1292L30.6309 37.1188C30.5511 37.0479 30.5403 37.007 30.5681 37.0606C30.5959 37.1142 30.6447 37.2286 30.6975 37.429L34.5658 36.411ZM33.3738 34.2098C32.7087 33.5446 31.8663 33.2209 31.0592 33.0784L30.3641 37.0176C30.5001 37.0416 30.5699 37.069 30.5935 37.0799C30.6138 37.0893 30.5877 37.0805 30.5454 37.0382L33.3738 34.2098ZM31.0802 33.0823C30.3668 32.9485 29.32 32.904 28.0716 32.904V36.904C29.3192 36.904 30.0324 36.9555 30.3431 37.0137L31.0802 33.0823ZM28.0716 32.904C27.2487 32.904 26.5347 32.9204 25.9382 32.9555L26.1731 36.9485C26.6645 36.9196 27.2945 36.904 28.0716 36.904V32.904ZM24.0556 34.952V41.912H28.0556V34.952H24.0556ZM26.0131 43.9115C27.5547 43.9443 28.9503 43.9284 30.1956 43.8611L29.9797 39.8669C28.857 39.9276 27.5646 39.9437 26.0982 39.9125L26.0131 43.9115ZM30.2493 43.8575C30.8697 43.8072 31.4154 43.7445 31.8574 43.6623C32.0771 43.6214 32.312 43.5683 32.5367 43.4948C32.7178 43.4355 33.0882 43.3029 33.432 43.0164L30.8713 39.9436C31.0129 39.8255 31.1352 39.7622 31.1894 39.7362C31.2498 39.7071 31.2886 39.6945 31.2925 39.6932C31.2972 39.6917 31.2501 39.7066 31.1258 39.7297C30.8798 39.7755 30.4896 39.8248 29.926 39.8705L30.2493 43.8575ZM44.8855 19.64V17.64H42.8855V19.64H44.8855ZM53.5255 19.64H55.5255V17.64H53.5255V19.64ZM53.5255 47V49H55.5255V47H53.5255ZM44.8855 47H42.8855V49H44.8855V47ZM44.8855 21.64H53.5255V17.64H44.8855V21.64ZM51.5255 19.64V47H55.5255V19.64H51.5255ZM53.5255 45H44.8855V49H53.5255V45ZM46.8855 47V19.64H42.8855V47H46.8855ZM83.9204 47V49H87.361L85.6583 46.0102L83.9204 47ZM74.4644 47L72.6908 47.9243L73.2514 49H74.4644V47ZM69.1364 36.776L70.91 35.8517L70.8822 35.7985L70.8514 35.747L69.1364 36.776ZM68.3684 35.432L66.5952 36.3571L66.6107 36.3869L66.6273 36.4161L68.3684 35.432ZM67.0724 33.32L68.6998 32.1575L65.0724 27.0791V33.32H67.0724ZM67.0724 47V49H69.0724V47H67.0724ZM58.4324 47H56.4324V49H58.4324V47ZM58.4324 19.64V17.64H56.4324V19.64H58.4324ZM67.0724 19.64H69.0724V17.64H67.0724V19.64ZM67.0724 32.072H65.0724V37.3067L68.5629 33.4056L67.0724 32.072ZM68.4644 30.104L66.7233 29.1199L66.7158 29.133L66.7086 29.1463L68.4644 30.104ZM69.1844 28.808L67.4395 27.8305L67.4165 27.8715L67.3955 27.9136L69.1844 28.808ZM74.3204 19.64V17.64H73.1483L72.5755 18.6625L74.3204 19.64ZM83.4404 19.64L85.1577 20.665L86.9632 17.64H83.4404V19.64ZM77.9684 28.808L79.5684 30.008L79.6317 29.9236L79.6857 29.833L77.9684 28.808ZM77.3444 29.816L79.0682 30.83V30.83L77.3444 29.816ZM76.2884 31.352L74.7266 30.1026L74.7212 30.1095L74.7157 30.1164L76.2884 31.352ZM75.1364 32.6L73.7798 31.1304L72.2059 32.5833L73.7631 34.054L75.1364 32.6ZM76.5284 34.232L74.8492 35.3185L74.8868 35.3766L74.9284 35.432L76.5284 34.232ZM77.8244 36.296L76.0761 37.2673L76.0812 37.2766L76.0864 37.2858L77.8244 36.296ZM83.9204 45H74.4644V49H83.9204V45ZM76.238 46.0757L70.91 35.8517L67.3628 37.7003L72.6908 47.9243L76.238 46.0757ZM70.8514 35.747C70.772 35.6148 70.5313 35.1942 70.1095 34.4479L66.6273 36.4161C67.0374 37.1418 67.3087 37.6172 67.4214 37.805L70.8514 35.747ZM70.1415 34.5069C69.7148 33.6889 69.2341 32.9056 68.6998 32.1575L65.4449 34.4825C65.8706 35.0784 66.254 35.7031 66.5952 36.3571L70.1415 34.5069ZM65.0724 33.32V47H69.0724V33.32H65.0724ZM67.0724 45H58.4324V49H67.0724V45ZM60.4324 47V19.64H56.4324V47H60.4324ZM58.4324 21.64H67.0724V17.64H58.4324V21.64ZM65.0724 19.64V32.072H69.0724V19.64H65.0724ZM68.5629 33.4056C69.2077 32.6849 69.7612 31.9031 70.2202 31.0617L66.7086 29.1463C66.3995 29.7129 66.0251 30.2431 65.5819 30.7384L68.5629 33.4056ZM70.2055 31.0881C70.6061 30.3794 70.8802 29.8885 70.9732 29.7024L67.3955 27.9136C67.3958 27.9131 67.3827 27.9387 67.3457 28.0068C67.312 28.0689 67.2664 28.1517 67.2081 28.2567C67.0915 28.4665 66.9303 28.7536 66.7233 29.1199L70.2055 31.0881ZM70.9292 29.7855L76.0652 20.6175L72.5755 18.6625L67.4395 27.8305L70.9292 29.7855ZM74.3204 21.64H83.4404V17.64H74.3204V21.64ZM81.723 18.615L76.251 27.783L79.6857 29.833L85.1577 20.665L81.723 18.615ZM76.3684 27.608C76.1902 27.8456 75.9198 28.2932 75.6205 28.802L79.0682 30.83C79.2245 30.5644 79.3481 30.3587 79.4409 30.2087C79.5458 30.0393 79.5799 29.9926 79.5684 30.008L76.3684 27.608ZM75.6205 28.802C75.3476 29.2659 75.0495 29.6991 74.7266 30.1026L77.8501 32.6014C78.2953 32.0449 78.7012 31.4541 79.0682 30.83L75.6205 28.802ZM74.7157 30.1164C74.429 30.4813 74.1172 30.819 73.7798 31.1304L76.4929 34.0696C76.9876 33.613 77.4437 33.1187 77.861 32.5876L74.7157 30.1164ZM73.7631 34.054C74.2476 34.5116 74.6009 34.9346 74.8492 35.3185L78.2075 33.1455C77.7519 32.4414 77.1772 31.7764 76.5096 31.146L73.7631 34.054ZM74.9284 35.432C75.2369 35.8433 75.6192 36.445 76.0761 37.2673L79.5727 35.3247C79.0695 34.419 78.5879 33.6447 78.1284 33.032L74.9284 35.432ZM76.0864 37.2858L82.1824 47.9898L85.6583 46.0102L79.5623 35.3062L76.0864 37.2858ZM85.8006 19.64V17.64H83.8006V19.64H85.8006ZM105.721 19.64H107.721V17.64H105.721V19.64ZM105.721 25.4V27.4H107.721V25.4H105.721ZM94.4406 25.4V23.4H92.4406V25.4H94.4406ZM94.4406 30.392H92.4406V32.392H94.4406V30.392ZM103.945 30.392H105.945V28.392H103.945V30.392ZM103.945 35.576V37.576H105.945V35.576H103.945ZM94.4406 35.576V33.576H92.4406V35.576H94.4406ZM94.4406 41.144H92.4406V43.144H94.4406V41.144ZM105.673 41.144H107.673V39.144H105.673V41.144ZM105.673 47V49H107.673V47H105.673ZM85.8006 47H83.8006V49H85.8006V47ZM85.8006 21.64H105.721V17.64H85.8006V21.64ZM103.721 19.64V25.4H107.721V19.64H103.721ZM105.721 23.4H94.4406V27.4H105.721V23.4ZM92.4406 25.4V30.392H96.4406V25.4H92.4406ZM94.4406 32.392H103.945V28.392H94.4406V32.392ZM101.945 30.392V35.576H105.945V30.392H101.945ZM103.945 33.576H94.4406V37.576H103.945V33.576ZM92.4406 35.576V41.144H96.4406V35.576H92.4406ZM94.4406 43.144H105.673V39.144H94.4406V43.144ZM103.673 41.144V47H107.673V41.144H103.673ZM105.673 45H85.8006V49H105.673V45ZM87.8006 47V19.64H83.8006V47H87.8006Z" fill="black" mask="url(#path-1-outside-1_4_96)"/>
<rect x="6.5" y="6.5" width="24" height="8" rx="4" fill="#D9D9D9" stroke="black" stroke-width="3"/>
<rect x="30.5" y="7.5" width="11" height="6" rx="3" fill="#D9D9D9" stroke="black" stroke-width="3"/>
<circle cx="10.5" cy="10.5" r="1.5" fill="black"/>
<circle cx="26.5" cy="10.5" r="1.5" fill="black"/>
<circle cx="10.5" cy="10.5" r="1.5" fill="black"/>
<rect x="77.5" y="6.5" width="24" height="8" rx="4" fill="#D9D9D9" stroke="black" stroke-width="3"/>
<rect x="101.5" y="7.5" width="11" height="6" rx="3" fill="#D9D9D9" stroke="black" stroke-width="3"/>
<circle cx="81.5" cy="10.5" r="1.5" fill="black"/>
<circle cx="97.5" cy="10.5" r="1.5" fill="black"/>
<circle cx="81.5" cy="10.5" r="1.5" fill="black"/>
<rect x="42.5" y="6.5" width="24" height="8" rx="4" fill="#D9D9D9" stroke="black" stroke-width="3"/>
<rect x="66.5" y="7.5" width="11" height="6" rx="3" fill="#D9D9D9" stroke="black" stroke-width="3"/>
<circle cx="46.5" cy="10.5" r="1.5" fill="black"/>
<circle cx="62.5" cy="10.5" r="1.5" fill="black"/>
<circle cx="46.5" cy="10.5" r="1.5" fill="black"/>
<rect x="-1.5" y="1.5" width="24" height="8" rx="4" transform="matrix(-1 0 0 1 112 50)" fill="#D9D9D9" stroke="black" stroke-width="3"/>
<rect x="-1.5" y="1.5" width="11" height="6" rx="3" transform="matrix(-1 0 0 1 88 51)" fill="#D9D9D9" stroke="black" stroke-width="3"/>
<circle cx="1.5" cy="1.5" r="1.5" transform="matrix(-1 0 0 1 111 54)" fill="black"/>
<circle cx="1.5" cy="1.5" r="1.5" transform="matrix(-1 0 0 1 95 54)" fill="black"/>
<circle cx="1.5" cy="1.5" r="1.5" transform="matrix(-1 0 0 1 111 54)" fill="black"/>
<rect x="-1.5" y="1.5" width="24" height="8" rx="4" transform="matrix(-1 0 0 1 41 50)" fill="#D9D9D9" stroke="black" stroke-width="3"/>
<rect x="-1.5" y="1.5" width="11" height="6" rx="3" transform="matrix(-1 0 0 1 17 51)" fill="#D9D9D9" stroke="black" stroke-width="3"/>
<circle cx="1.5" cy="1.5" r="1.5" transform="matrix(-1 0 0 1 40 54)" fill="black"/>
<circle cx="1.5" cy="1.5" r="1.5" transform="matrix(-1 0 0 1 24 54)" fill="black"/>
<circle cx="1.5" cy="1.5" r="1.5" transform="matrix(-1 0 0 1 40 54)" fill="black"/>
<rect x="-1.5" y="1.5" width="24" height="8" rx="4" transform="matrix(-1 0 0 1 76 50)" fill="#D9D9D9" stroke="black" stroke-width="3"/>
<rect x="-1.5" y="1.5" width="11" height="6" rx="3" transform="matrix(-1 0 0 1 52 51)" fill="#D9D9D9" stroke="black" stroke-width="3"/>
<circle cx="1.5" cy="1.5" r="1.5" transform="matrix(-1 0 0 1 75 54)" fill="black"/>
<circle cx="1.5" cy="1.5" r="1.5" transform="matrix(-1 0 0 1 59 54)" fill="black"/>
<circle cx="1.5" cy="1.5" r="1.5" transform="matrix(-1 0 0 1 75 54)" fill="black"/>
<rect x="-1.52595" y="-1.47359" width="24" height="8" rx="4" transform="matrix(-0.0174524 -0.999848 -0.999848 0.0174524 9.63558 50.0206)" fill="#D9D9D9" stroke="black" stroke-width="3"/>
<rect x="-1.52595" y="-1.47359" width="11" height="6" rx="3" transform="matrix(-0.0174524 -0.999848 -0.999848 0.0174524 8.21688 26.0417)" fill="#D9D9D9" stroke="black" stroke-width="3"/>
<circle cx="1.5" cy="1.5" r="1.5" transform="matrix(-0.0174524 -0.999848 -0.999848 0.0174524 8.59232 49.0646)" fill="black"/>
<circle cx="1.5" cy="1.5" r="1.5" transform="matrix(-0.0174524 -0.999848 -0.999848 0.0174524 8.31308 33.067)" fill="black"/>
<circle cx="1.5" cy="1.5" r="1.5" transform="matrix(-0.0174524 -0.999848 -0.999848 0.0174524 8.59232 49.0646)" fill="black"/>
<mask id="path-38-outside-2_4_96" maskUnits="userSpaceOnUse" x="108" y="12" width="169" height="42" fill="black">
<rect fill="white" x="108" y="12" width="169" height="42"/>
<path d="M140.058 49.784C138.479 50.4667 136.645 50.9573 134.554 51.256C132.463 51.5547 130.522 51.704 128.73 51.704C122.927 51.704 118.383 50.1893 115.098 47.16C111.813 44.1307 110.17 39.48 110.17 33.208C110.17 26.808 111.898 22.0293 115.354 18.872C118.81 15.672 123.674 14.072 129.946 14.072C132.933 14.072 136.047 14.4773 139.29 15.288C139.29 16.1413 139.205 17.4213 139.034 19.128C138.863 20.792 138.693 21.9653 138.522 22.648H134.49C131.546 22.648 129.221 22.712 127.514 22.84C125.85 22.9253 124.847 23.1173 124.506 23.416C123.866 24.0133 123.375 25.2293 123.034 27.064C122.693 28.856 122.522 30.584 122.522 32.248C122.522 35.1493 122.885 37.3893 123.61 38.968C124.335 40.504 125.253 41.528 126.362 42.04C127.429 42.552 129.199 42.808 131.674 42.808C133.637 42.808 136.197 42.6373 139.354 42.296L140.058 49.784ZM144.327 14.52H155.911V27.896H165.831V14.52H177.415V51H165.831V35.256H155.911V51H144.327V14.52ZM205.008 43H194.384L192.464 51H180.688L192.464 14.52H207.504L218.768 51H206.928L205.008 43ZM199.632 22.392L195.856 35.896H203.472L199.888 22.392H199.632ZM222.014 14.52H233.534V51H222.014V14.52ZM250.701 36.28V51H240.013V14.52H250.829L260.493 29.24C261.943 31.416 263.053 33.2507 263.821 34.744H264.013V28.6V14.52H274.637V51H263.757L253.837 35.64L250.957 31.288H250.765L250.701 36.28Z"/>
</mask>
<path d="M140.058 49.784C138.479 50.4667 136.645 50.9573 134.554 51.256C132.463 51.5547 130.522 51.704 128.73 51.704C122.927 51.704 118.383 50.1893 115.098 47.16C111.813 44.1307 110.17 39.48 110.17 33.208C110.17 26.808 111.898 22.0293 115.354 18.872C118.81 15.672 123.674 14.072 129.946 14.072C132.933 14.072 136.047 14.4773 139.29 15.288C139.29 16.1413 139.205 17.4213 139.034 19.128C138.863 20.792 138.693 21.9653 138.522 22.648H134.49C131.546 22.648 129.221 22.712 127.514 22.84C125.85 22.9253 124.847 23.1173 124.506 23.416C123.866 24.0133 123.375 25.2293 123.034 27.064C122.693 28.856 122.522 30.584 122.522 32.248C122.522 35.1493 122.885 37.3893 123.61 38.968C124.335 40.504 125.253 41.528 126.362 42.04C127.429 42.552 129.199 42.808 131.674 42.808C133.637 42.808 136.197 42.6373 139.354 42.296L140.058 49.784ZM144.327 14.52H155.911V27.896H165.831V14.52H177.415V51H165.831V35.256H155.911V51H144.327V14.52ZM205.008 43H194.384L192.464 51H180.688L192.464 14.52H207.504L218.768 51H206.928L205.008 43ZM199.632 22.392L195.856 35.896H203.472L199.888 22.392H199.632ZM222.014 14.52H233.534V51H222.014V14.52ZM250.701 36.28V51H240.013V14.52H250.829L260.493 29.24C261.943 31.416 263.053 33.2507 263.821 34.744H264.013V28.6V14.52H274.637V51H263.757L253.837 35.64L250.957 31.288H250.765L250.701 36.28Z" fill="#FF6663"/>
<path d="M140.058 49.784C138.479 50.4667 136.645 50.9573 134.554 51.256C132.463 51.5547 130.522 51.704 128.73 51.704C122.927 51.704 118.383 50.1893 115.098 47.16C111.813 44.1307 110.17 39.48 110.17 33.208C110.17 26.808 111.898 22.0293 115.354 18.872C118.81 15.672 123.674 14.072 129.946 14.072C132.933 14.072 136.047 14.4773 139.29 15.288C139.29 16.1413 139.205 17.4213 139.034 19.128C138.863 20.792 138.693 21.9653 138.522 22.648H134.49C131.546 22.648 129.221 22.712 127.514 22.84C125.85 22.9253 124.847 23.1173 124.506 23.416C123.866 24.0133 123.375 25.2293 123.034 27.064C122.693 28.856 122.522 30.584 122.522 32.248C122.522 35.1493 122.885 37.3893 123.61 38.968C124.335 40.504 125.253 41.528 126.362 42.04C127.429 42.552 129.199 42.808 131.674 42.808C133.637 42.808 136.197 42.6373 139.354 42.296L140.058 49.784ZM144.327 14.52H155.911V27.896H165.831V14.52H177.415V51H165.831V35.256H155.911V51H144.327V14.52ZM205.008 43H194.384L192.464 51H180.688L192.464 14.52H207.504L218.768 51H206.928L205.008 43ZM199.632 22.392L195.856 35.896H203.472L199.888 22.392H199.632ZM222.014 14.52H233.534V51H222.014V14.52ZM250.701 36.28V51H240.013V14.52H250.829L260.493 29.24C261.943 31.416 263.053 33.2507 263.821 34.744H264.013V28.6V14.52H274.637V51H263.757L253.837 35.64L250.957 31.288H250.765L250.701 36.28Z" fill="black" fill-opacity="0.2"/>
<path d="M140.058 49.784L140.852 51.6197L142.185 51.0431L142.049 49.5968L140.058 49.784ZM134.554 51.256L134.271 49.2761L134.554 51.256ZM115.098 47.16L113.742 48.6303L115.098 47.16ZM115.354 18.872L116.703 20.3486L116.713 20.3395L115.354 18.872ZM139.29 15.288H141.29V13.7264L139.775 13.3477L139.29 15.288ZM139.034 19.128L141.024 19.3321L141.024 19.327L139.034 19.128ZM138.522 22.648V24.648H140.084L140.462 23.1331L138.522 22.648ZM127.514 22.84L127.616 24.8374L127.64 24.8362L127.664 24.8344L127.514 22.84ZM124.506 23.416L123.189 21.9108L123.165 21.932L123.141 21.9539L124.506 23.416ZM123.034 27.064L124.999 27.4382L125 27.4298L123.034 27.064ZM123.61 38.968L121.793 39.803L121.797 39.8125L121.802 39.822L123.61 38.968ZM126.362 42.04L127.227 40.237L127.214 40.2304L127.2 40.2241L126.362 42.04ZM139.354 42.296L141.345 42.1088L141.155 40.0896L139.139 40.3076L139.354 42.296ZM139.264 47.9483C137.881 48.5465 136.224 48.9971 134.271 49.2761L134.837 53.2359C137.065 52.9176 139.078 52.3868 140.852 51.6197L139.264 47.9483ZM134.271 49.2761C132.258 49.5637 130.412 49.704 128.73 49.704V53.704C130.632 53.704 132.669 53.5457 134.837 53.2359L134.271 49.2761ZM128.73 49.704C123.275 49.704 119.27 48.2865 116.454 45.6897L113.742 48.6303C117.497 52.0922 122.579 53.704 128.73 53.704V49.704ZM116.454 45.6897C113.723 43.1716 112.17 39.1529 112.17 33.208H108.17C108.17 39.8071 109.902 45.0897 113.742 48.6303L116.454 45.6897ZM112.17 33.208C112.17 27.1555 113.797 23.0033 116.703 20.3486L114.005 17.3954C109.999 21.0554 108.17 26.4605 108.17 33.208H112.17ZM116.713 20.3395C119.69 17.5824 124.007 16.072 129.946 16.072V12.072C123.341 12.072 117.93 13.7616 113.995 17.4045L116.713 20.3395ZM129.946 16.072C132.751 16.072 135.702 16.4526 138.805 17.2283L139.775 13.3477C136.392 12.502 133.114 12.072 129.946 12.072V16.072ZM137.29 15.288C137.29 16.0377 137.213 17.2365 137.044 18.929L141.024 19.327C141.196 17.6061 141.29 16.245 141.29 15.288H137.29ZM137.044 18.9239C136.874 20.5865 136.714 21.6328 136.582 22.1629L140.462 23.1331C140.671 22.2978 140.853 20.9975 141.024 19.3321L137.044 18.9239ZM138.522 20.648H134.49V24.648H138.522V20.648ZM134.49 20.648C131.526 20.648 129.144 20.7122 127.364 20.8456L127.664 24.8344C129.298 24.7118 131.566 24.648 134.49 24.648V20.648ZM127.412 20.8426C126.537 20.8875 125.768 20.963 125.138 21.0837C124.623 21.1822 123.801 21.375 123.189 21.9108L125.823 24.9212C125.647 25.0751 125.517 25.1107 125.572 25.0907C125.607 25.078 125.704 25.0479 125.89 25.0123C126.263 24.941 126.827 24.8779 127.616 24.8374L127.412 20.8426ZM123.141 21.9539C121.99 23.0284 121.416 24.8278 121.068 26.6982L125 27.4298C125.335 25.6308 125.742 24.9982 125.871 24.8781L123.141 21.9539ZM121.069 26.6898C120.707 28.5935 120.522 30.4471 120.522 32.248H124.522C124.522 30.7209 124.679 29.1185 124.999 27.4382L121.069 26.6898ZM120.522 32.248C120.522 35.2692 120.892 37.8435 121.793 39.803L125.427 38.133C124.877 36.9352 124.522 35.0295 124.522 32.248H120.522ZM121.802 39.822C122.65 41.6182 123.848 43.0824 125.524 43.8559L127.2 40.2241C126.657 39.9735 126.021 39.3898 125.418 38.114L121.802 39.822ZM125.497 43.843C126.996 44.5628 129.157 44.808 131.674 44.808V40.808C129.241 40.808 127.861 40.5412 127.227 40.237L125.497 43.843ZM131.674 44.808C133.738 44.808 136.378 44.6294 139.569 44.2844L139.139 40.3076C136.015 40.6453 133.535 40.808 131.674 40.808V44.808ZM137.363 42.4832L138.067 49.9712L142.049 49.5968L141.345 42.1088L137.363 42.4832ZM144.326 14.52V12.52H142.326V14.52H144.326ZM155.91 14.52H157.91V12.52H155.91V14.52ZM155.91 27.896H153.91V29.896H155.91V27.896ZM165.831 27.896V29.896H167.831V27.896H165.831ZM165.831 14.52V12.52H163.831V14.52H165.831ZM177.415 14.52H179.415V12.52H177.415V14.52ZM177.415 51V53H179.415V51H177.415ZM165.831 51H163.831V53H165.831V51ZM165.831 35.256H167.831V33.256H165.831V35.256ZM155.91 35.256V33.256H153.91V35.256H155.91ZM155.91 51V53H157.91V51H155.91ZM144.326 51H142.326V53H144.326V51ZM144.326 16.52H155.91V12.52H144.326V16.52ZM153.91 14.52V27.896H157.91V14.52H153.91ZM155.91 29.896H165.831V25.896H155.91V29.896ZM167.831 27.896V14.52H163.831V27.896H167.831ZM165.831 16.52H177.415V12.52H165.831V16.52ZM175.415 14.52V51H179.415V14.52H175.415ZM177.415 49H165.831V53H177.415V49ZM167.831 51V35.256H163.831V51H167.831ZM165.831 33.256H155.91V37.256H165.831V33.256ZM153.91 35.256V51H157.91V35.256H153.91ZM155.91 49H144.326V53H155.91V49ZM146.326 51V14.52H142.326V51H146.326ZM205.007 43L206.952 42.5333L206.584 41H205.007V43ZM194.383 43V41H192.807L192.439 42.5333L194.383 43ZM192.464 51V53H194.04L194.408 51.4667L192.464 51ZM180.688 51L178.784 50.3856L177.94 53H180.688V51ZM192.464 14.52V12.52H191.007L190.56 13.9056L192.464 14.52ZM207.504 14.52L209.414 13.9299L208.979 12.52H207.504V14.52ZM218.768 51V53H221.478L220.678 50.4099L218.768 51ZM206.928 51L204.983 51.4667L205.351 53H206.928V51ZM199.632 22.392V20.392H198.114L197.705 21.8534L199.632 22.392ZM195.855 35.896L193.929 35.3574L193.22 37.896H195.855V35.896ZM203.471 35.896V37.896H206.072L205.405 35.383L203.471 35.896ZM199.887 22.392L201.821 21.879L201.426 20.392H199.887V22.392ZM205.007 41H194.383V45H205.007V41ZM192.439 42.5333L190.519 50.5333L194.408 51.4667L196.328 43.4667L192.439 42.5333ZM192.464 49H180.688V53H192.464V49ZM182.591 51.6144L194.367 15.1344L190.56 13.9056L178.784 50.3856L182.591 51.6144ZM192.464 16.52H207.504V12.52H192.464V16.52ZM205.593 15.1101L216.857 51.5901L220.678 50.4099L209.414 13.9299L205.593 15.1101ZM218.768 49H206.928V53H218.768V49ZM208.872 50.5333L206.952 42.5333L203.063 43.4667L204.983 51.4667L208.872 50.5333ZM197.705 21.8534L193.929 35.3574L197.782 36.4346L201.558 22.9306L197.705 21.8534ZM195.855 37.896H203.471V33.896H195.855V37.896ZM205.405 35.383L201.821 21.879L197.954 22.905L201.538 36.409L205.405 35.383ZM199.887 20.392H199.632V24.392H199.887V20.392ZM222.014 14.52V12.52H220.014V14.52H222.014ZM233.534 14.52H235.534V12.52H233.534V14.52ZM233.534 51V53H235.534V51H233.534ZM222.014 51H220.014V53H222.014V51ZM222.014 16.52H233.534V12.52H222.014V16.52ZM231.534 14.52V51H235.534V14.52H231.534ZM233.534 49H222.014V53H233.534V49ZM224.014 51V14.52H220.014V51H224.014ZM250.701 36.28L248.701 36.2544L248.701 36.2672V36.28H250.701ZM250.701 51V53H252.701V51H250.701ZM240.012 51H238.012V53H240.012V51ZM240.012 14.52V12.52H238.012V14.52H240.012ZM250.829 14.52L252.5 13.4224L251.908 12.52H250.829V14.52ZM260.492 29.24L258.821 30.3377L258.828 30.3494L260.492 29.24ZM263.82 34.744L262.042 35.6587L262.6 36.744H263.82V34.744ZM264.012 34.744V36.744H266.012V34.744H264.012ZM264.012 14.52V12.52H262.012V14.52H264.012ZM274.637 14.52H276.637V12.52H274.637V14.52ZM274.637 51V53H276.637V51H274.637ZM263.757 51L262.076 52.0851L262.667 53H263.757V51ZM253.837 35.64L255.517 34.5549L255.511 34.5456L255.504 34.5363L253.837 35.64ZM250.956 31.288L252.624 30.1843L252.031 29.288H250.956V31.288ZM250.764 31.288V29.288H248.79L248.765 31.2624L250.764 31.288ZM248.701 36.28V51H252.701V36.28H248.701ZM250.701 49H240.012V53H250.701V49ZM242.012 51V14.52H238.012V51H242.012ZM240.012 16.52H250.829V12.52H240.012V16.52ZM249.157 15.6176L258.821 30.3376L262.164 28.1424L252.5 13.4224L249.157 15.6176ZM258.828 30.3494C260.258 32.4931 261.322 34.2585 262.042 35.6587L265.599 33.8293C264.783 32.2429 263.629 30.3389 262.157 28.1306L258.828 30.3494ZM263.82 36.744H264.012V32.744H263.82V36.744ZM266.012 34.744V28.6H262.012V34.744H266.012ZM266.012 28.6V14.52H262.012V28.6H266.012ZM264.012 16.52H274.637V12.52H264.012V16.52ZM272.637 14.52V51H276.637V14.52H272.637ZM274.637 49H263.757V53H274.637V49ZM265.437 49.9149L255.517 34.5549L252.156 36.7251L262.076 52.0851L265.437 49.9149ZM255.504 34.5363L252.624 30.1843L249.289 32.3917L252.169 36.7437L255.504 34.5363ZM250.956 29.288H250.764V33.288H250.956V29.288ZM248.765 31.2624L248.701 36.2544L252.7 36.3056L252.764 31.3136L248.765 31.2624Z" fill="black" mask="url(#path-38-outside-2_4_96)"/>
</g>
<defs>
<clipPath id="clip0_4_96">
<rect width="280" height="66" fill="white"/>
</clipPath>
</defs>
</svg>
